<svg id="visual" viewBox="0 0 900 600" width="900" height="600" xmlns="http://www.w3.org/2000/svg" xmlns:xlink="http://www.w3.org/1999/xlink" version="1.1"><g stroke-width="1" stroke-linejoin="bevel"><path d="M443 296.7L442 266.3L366 286.3Z" fill="#dd90ab" stroke="#dd90ab"></path><path d="M442 266.3L429 229.1L366 286.3Z" fill="#fa928e" stroke="#fa928e"></path><path d="M314 268.1L344 298.3L366 286.3Z" fill="#dd90ab" stroke="#dd90ab"></path><path d="M366 286.3L379 340.7L443 296.7Z" fill="#fa928e" stroke="#fa928e"></path><path d="M344 298.3L379 340.7L366 286.3Z" fill="#fa928e" stroke="#fa928e"></path><path d="M379 340.7L399 359.9L443 296.7Z" fill="#c292b3" stroke="#c292b3"></path><path d="M443 205L422 207L429 229.1Z" fill="#9e93ac" stroke="#9e93ac"></path><path d="M429 229.1L367 191.6L366 286.3Z" fill="#b593b3" stroke="#b593b3"></path><path d="M399 359.9L452 350.9L443 296.7Z" fill="#c292b3" stroke="#c292b3"></path><path d="M520 294L485 205.3L442 266.3Z" fill="#a893b1" stroke="#a893b1"></path><path d="M375 361.9L388 363.7L379 340.7Z" fill="#ff9681" stroke="#ff9681"></path><path d="M379 340.7L388 363.7L399 359.9Z" fill="#e990a3" stroke="#e990a3"></path><path d="M399 359.9L447 396L452 350.9Z" fill="#fa928e" stroke="#fa928e"></path><path d="M303 337.9L375 361.9L379 340.7Z" fill="#e990a3" stroke="#e990a3"></path><path d="M485 205.3L443 205L429 229.1Z" fill="#b593b3" stroke="#b593b3"></path><path d="M485 205.3L429 229.1L442 266.3Z" fill="#9e93ac" stroke="#9e93ac"></path><path d="M367 191.6L314 268.1L366 286.3Z" fill="#e990a3" stroke="#e990a3"></path><path d="M344 298.3L303 337.9L379 340.7Z" fill="#9e93ac" stroke="#9e93ac"></path><path d="M443 205L414 184.7L422 207Z" fill="#ff9681" stroke="#ff9681"></path><path d="M422 207L367 191.6L429 229.1Z" fill="#dd90ab" stroke="#dd90ab"></path><path d="M414 184.7L367 191.6L422 207Z" fill="#a893b1" stroke="#a893b1"></path><path d="M520 294L442 266.3L443 296.7Z" fill="#c292b3" stroke="#c292b3"></path><path d="M443 205L411 140.6L414 184.7Z" fill="#fa928e" stroke="#fa928e"></path><path d="M520 332.1L520 294L443 296.7Z" fill="#c292b3" stroke="#c292b3"></path><path d="M314 268.1L303 337.9L344 298.3Z" fill="#fa928e" stroke="#fa928e"></path><path d="M320 389.6L386 398.7L375 361.9Z" fill="#ff9681" stroke="#ff9681"></path><path d="M375 361.9L386 398.7L388 363.7Z" fill="#c292b3" stroke="#c292b3"></path><path d="M388 363.7L386 398.7L399 359.9Z" fill="#c292b3" stroke="#c292b3"></path><path d="M520 332.1L523 299.3L520 294Z" fill="#a893b1" stroke="#a893b1"></path><path d="M545 219.1L510 196.4L485 205.3Z" fill="#9592a6" stroke="#9592a6"></path><path d="M386 398.7L447 396L399 359.9Z" fill="#ff9681" stroke="#ff9681"></path><path d="M452 350.9L520 332.1L443 296.7Z" fill="#d091b0" stroke="#d091b0"></path><path d="M470 400.6L520 332.1L452 350.9Z" fill="#9592a6" stroke="#9592a6"></path><path d="M367 191.6L290 235L314 268.1Z" fill="#9592a6" stroke="#9592a6"></path><path d="M260 292.9L289 337.7L303 337.9Z" fill="#b593b3" stroke="#b593b3"></path><path d="M260 292.9L303 337.9L314 268.1Z" fill="#e990a3" stroke="#e990a3"></path><path d="M303 337.9L320 389.6L375 361.9Z" fill="#9e93ac" stroke="#9e93ac"></path><path d="M448 455.3L470 400.6L447 396Z" fill="#dd90ab" stroke="#dd90ab"></path><path d="M447 396L470 400.6L452 350.9Z" fill="#d091b0" stroke="#d091b0"></path><path d="M548 257L485 205.3L520 294Z" fill="#f39199" stroke="#f39199"></path><path d="M485 205.3L411 140.6L443 205Z" fill="#b593b3" stroke="#b593b3"></path><path d="M289 337.7L320 389.6L303 337.9Z" fill="#b593b3" stroke="#b593b3"></path><path d="M540 328.7L543 294.9L523 299.3Z" fill="#9e93ac" stroke="#9e93ac"></path><path d="M523 299.3L543 294.9L520 294Z" fill="#d091b0" stroke="#d091b0"></path><path d="M523 393.9L540 328.7L520 332.1Z" fill="#ff9681" stroke="#ff9681"></path><path d="M520 332.1L540 328.7L523 299.3Z" fill="#a893b1" stroke="#a893b1"></path><path d="M488 101.7L411 140.6L485 205.3Z" fill="#fa928e" stroke="#fa928e"></path><path d="M414 184.7L411 140.6L367 191.6Z" fill="#c292b3" stroke="#c292b3"></path><path d="M241 225L264 241.1L290 235Z" fill="#c292b3" stroke="#c292b3"></path><path d="M571 232L548 257L586 287.9Z" fill="#e990a3" stroke="#e990a3"></path><path d="M543 294.9L548 257L520 294Z" fill="#a893b1" stroke="#a893b1"></path><path d="M264 241.1L265 246.1L290 235Z" fill="#fa928e" stroke="#fa928e"></path><path d="M290 235L265 246.1L314 268.1Z" fill="#e990a3" stroke="#e990a3"></path><path d="M265 246.1L260 292.9L314 268.1Z" fill="#fa928e" stroke="#fa928e"></path><path d="M273 395.9L294 412.6L320 389.6Z" fill="#9592a6" stroke="#9592a6"></path><path d="M300 164.7L290 235L367 191.6Z" fill="#9592a6" stroke="#9592a6"></path><path d="M265 246.1L215 270L260 292.9Z" fill="#f39199" stroke="#f39199"></path><path d="M548 257L545 219.1L485 205.3Z" fill="#9e93ac" stroke="#9e93ac"></path><path d="M306 148.4L300 164.7L367 191.6Z" fill="#d091b0" stroke="#d091b0"></path><path d="M207 323.7L255 334.9L260 292.9Z" fill="#fa928e" stroke="#fa928e"></path><path d="M260 292.9L255 334.9L289 337.7Z" fill="#c292b3" stroke="#c292b3"></path><path d="M470 400.6L523 393.9L520 332.1Z" fill="#9592a6" stroke="#9592a6"></path><path d="M320 389.6L334 430.4L386 398.7Z" fill="#fa928e" stroke="#fa928e"></path><path d="M386 398.7L419 459.4L447 396Z" fill="#dd90ab" stroke="#dd90ab"></path><path d="M470 400.6L512 425.7L523 393.9Z" fill="#fa928e" stroke="#fa928e"></path><path d="M294 412.6L334 430.4L320 389.6Z" fill="#d091b0" stroke="#d091b0"></path><path d="M314 137.4L306 148.4L367 191.6Z" fill="#9e93ac" stroke="#9e93ac"></path><path d="M300 164.7L241 225L290 235Z" fill="#b593b3" stroke="#b593b3"></path><path d="M273 395.9L320 389.6L289 337.7Z" fill="#ff9681" stroke="#ff9681"></path><path d="M380 98.4L314 137.4L367 191.6Z" fill="#a893b1" stroke="#a893b1"></path><path d="M548 257L571 232L545 219.1Z" fill="#9e93ac" stroke="#9e93ac"></path><path d="M545 219.1L572 133.6L510 196.4Z" fill="#e990a3" stroke="#e990a3"></path><path d="M586 287.9L548 257L543 294.9Z" fill="#e990a3" stroke="#e990a3"></path><path d="M586 287.9L543 294.9L540 328.7Z" fill="#dd90ab" stroke="#dd90ab"></path><path d="M255 334.9L273 395.9L289 337.7Z" fill="#9e93ac" stroke="#9e93ac"></path><path d="M266 136.6L241 225L300 164.7Z" fill="#9e93ac" stroke="#9e93ac"></path><path d="M264 241.1L241 225L265 246.1Z" fill="#e990a3" stroke="#e990a3"></path><path d="M266 136.6L300 164.7L306 148.4Z" fill="#fa928e" stroke="#fa928e"></path><path d="M367 465.4L419 459.4L386 398.7Z" fill="#c292b3" stroke="#c292b3"></path><path d="M419 459.4L448 455.3L447 396Z" fill="#e990a3" stroke="#e990a3"></path><path d="M464 463.1L512 425.7L470 400.6Z" fill="#a893b1" stroke="#a893b1"></path><path d="M294 412.6L327 443.4L334 430.4Z" fill="#ff9681" stroke="#ff9681"></path><path d="M334 430.4L367 465.4L386 398.7Z" fill="#a893b1" stroke="#a893b1"></path><path d="M275 425.3L327 443.4L294 412.6Z" fill="#9592a6" stroke="#9592a6"></path><path d="M586 287.9L540 328.7L610 312.9Z" fill="#b593b3" stroke="#b593b3"></path><path d="M610 301.7L586 287.9L610 312.9Z" fill="#f39199" stroke="#f39199"></path><path d="M389 89.4L380 98.4L411 140.6Z" fill="#c292b3" stroke="#c292b3"></path><path d="M411 140.6L380 98.4L367 191.6Z" fill="#a893b1" stroke="#a893b1"></path><path d="M389 89.4L411 140.6L434 80.7Z" fill="#f39199" stroke="#f39199"></path><path d="M327 443.4L367 465.4L334 430.4Z" fill="#e990a3" stroke="#e990a3"></path><path d="M614 218.1L581 214.1L571 232Z" fill="#9e93ac" stroke="#9e93ac"></path><path d="M571 232L581 214.1L545 219.1Z" fill="#9e93ac" stroke="#9e93ac"></path><path d="M403 491.3L464 463.1L448 455.3Z" fill="#c292b3" stroke="#c292b3"></path><path d="M448 455.3L464 463.1L470 400.6Z" fill="#9592a6" stroke="#9592a6"></path><path d="M470 467.7L464 463.1L422 525.6Z" fill="#b593b3" stroke="#b593b3"></path><path d="M241 225L215 270L265 246.1Z" fill="#f39199" stroke="#f39199"></path><path d="M220 464.6L275 425.3L273 395.9Z" fill="#9592a6" stroke="#9592a6"></path><path d="M207 323.7L273 395.9L255 334.9Z" fill="#e990a3" stroke="#e990a3"></path><path d="M273 395.9L275 425.3L294 412.6Z" fill="#b593b3" stroke="#b593b3"></path><path d="M327 443.4L339 482.6L367 465.4Z" fill="#f39199" stroke="#f39199"></path><path d="M488 101.7L485 205.3L510 196.4Z" fill="#9e93ac" stroke="#9e93ac"></path><path d="M319 94.7L266 136.6L314 137.4Z" fill="#9e93ac" stroke="#9e93ac"></path><path d="M403 491.3L448 455.3L419 459.4Z" fill="#9e93ac" stroke="#9e93ac"></path><path d="M464 463.1L470 467.7L512 425.7Z" fill="#f39199" stroke="#f39199"></path><path d="M554 118.4L488 101.7L510 196.4Z" fill="#f39199" stroke="#f39199"></path><path d="M186 204.4L204 275.3L215 270Z" fill="#f39199" stroke="#f39199"></path><path d="M215 270L207 323.7L260 292.9Z" fill="#ff9681" stroke="#ff9681"></path><path d="M319 94.7L314 137.4L325 90.6Z" fill="#d091b0" stroke="#d091b0"></path><path d="M314 137.4L266 136.6L306 148.4Z" fill="#e990a3" stroke="#e990a3"></path><path d="M241 225L200 203.3L215 270Z" fill="#d091b0" stroke="#d091b0"></path><path d="M204 275.3L207 323.7L215 270Z" fill="#b593b3" stroke="#b593b3"></path><path d="M488 101.7L434 80.7L411 140.6Z" fill="#f39199" stroke="#f39199"></path><path d="M610 312.9L540 328.7L614 369Z" fill="#9592a6" stroke="#9592a6"></path><path d="M615 219.1L614 218.1L571 232Z" fill="#f39199" stroke="#f39199"></path><path d="M614 218.1L594 198.3L581 214.1Z" fill="#f39199" stroke="#f39199"></path><path d="M581 214.1L594 198.3L545 219.1Z" fill="#f39199" stroke="#f39199"></path><path d="M589 397.4L540 328.7L523 393.9Z" fill="#fa928e" stroke="#fa928e"></path><path d="M325 90.6L380 98.4L353 67.6Z" fill="#c292b3" stroke="#c292b3"></path><path d="M325 90.6L314 137.4L380 98.4Z" fill="#a893b1" stroke="#a893b1"></path><path d="M353 67.6L380 98.4L389 89.4Z" fill="#b593b3" stroke="#b593b3"></path><path d="M359 497.3L403 491.3L367 465.4Z" fill="#f39199" stroke="#f39199"></path><path d="M367 465.4L403 491.3L419 459.4Z" fill="#fa928e" stroke="#fa928e"></path><path d="M264 483.4L339 482.6L327 443.4Z" fill="#b593b3" stroke="#b593b3"></path><path d="M470 467.7L542 449.4L512 425.7Z" fill="#f39199" stroke="#f39199"></path><path d="M512 425.7L542 449.4L523 393.9Z" fill="#e990a3" stroke="#e990a3"></path><path d="M591 517.4L542 449.4L530 559.1Z" fill="#c292b3" stroke="#c292b3"></path><path d="M576 430.6L589 397.4L523 393.9Z" fill="#ff9681" stroke="#ff9681"></path><path d="M615 219.1L571 232L586 287.9Z" fill="#e990a3" stroke="#e990a3"></path><path d="M615 219.1L586 287.9L610 301.7Z" fill="#9592a6" stroke="#9592a6"></path><path d="M695 281L615 219.1L610 301.7Z" fill="#9e93ac" stroke="#9e93ac"></path><path d="M339 482.6L359 497.3L367 465.4Z" fill="#e990a3" stroke="#e990a3"></path><path d="M266 136.6L200 203.3L241 225Z" fill="#c292b3" stroke="#c292b3"></path><path d="M204 275.3L189 325.9L207 323.7Z" fill="#d091b0" stroke="#d091b0"></path><path d="M207 323.7L156 365.6L273 395.9Z" fill="#9e93ac" stroke="#9e93ac"></path><path d="M58 288.1L189 325.9L204 275.3Z" fill="#c292b3" stroke="#c292b3"></path><path d="M572 133.6L630 137.3L581 120.3Z" fill="#e990a3" stroke="#e990a3"></path><path d="M572 133.6L545 219.1L594 198.3Z" fill="#ff9681" stroke="#ff9681"></path><path d="M572 133.6L554 118.4L510 196.4Z" fill="#ff9681" stroke="#ff9681"></path><path d="M488 101.7L447 39.7L434 80.7Z" fill="#9592a6" stroke="#9592a6"></path><path d="M346 27.9L353 67.6L396 0Z" fill="#9592a6" stroke="#9592a6"></path><path d="M325 90.6L299 69.9L319 94.7Z" fill="#dd90ab" stroke="#dd90ab"></path><path d="M319 94.7L299 69.9L266 136.6Z" fill="#e990a3" stroke="#e990a3"></path><path d="M361 524.1L362 501.6L321 514.6Z" fill="#c292b3" stroke="#c292b3"></path><path d="M359 497.3L362 501.6L403 491.3Z" fill="#d091b0" stroke="#d091b0"></path><path d="M572 133.6L594 198.3L630 137.3Z" fill="#fa928e" stroke="#fa928e"></path><path d="M589 397.4L614 369L540 328.7Z" fill="#b593b3" stroke="#b593b3"></path><path d="M610 312.9L675 327.7L610 301.7Z" fill="#9e93ac" stroke="#9e93ac"></path><path d="M542 449.4L576 430.6L523 393.9Z" fill="#e990a3" stroke="#e990a3"></path><path d="M589 397.4L641 413.9L614 369Z" fill="#c292b3" stroke="#c292b3"></path><path d="M185 174.1L186 204.4L200 203.3Z" fill="#dd90ab" stroke="#dd90ab"></path><path d="M200 203.3L186 204.4L215 270Z" fill="#9e93ac" stroke="#9e93ac"></path><path d="M522 52.7L520 78.9L556 64.6Z" fill="#c292b3" stroke="#c292b3"></path><path d="M554 118.4L520 78.9L488 101.7Z" fill="#9e93ac" stroke="#9e93ac"></path><path d="M434 80.7L447 39.7L389 89.4Z" fill="#9592a6" stroke="#9592a6"></path><path d="M520 78.9L509 71.6L488 101.7Z" fill="#b593b3" stroke="#b593b3"></path><path d="M353 67.6L299 69.9L325 90.6Z" fill="#d091b0" stroke="#d091b0"></path><path d="M266 136.6L209 136.9L200 203.3Z" fill="#9e93ac" stroke="#9e93ac"></path><path d="M572 133.6L581 120.3L554 118.4Z" fill="#dd90ab" stroke="#dd90ab"></path><path d="M630 137.3L594 198.3L654 166.6Z" fill="#ff9681" stroke="#ff9681"></path><path d="M361 524.1L422 525.6L403 491.3Z" fill="#f39199" stroke="#f39199"></path><path d="M403 491.3L422 525.6L464 463.1Z" fill="#f39199" stroke="#f39199"></path><path d="M628 467.6L641 413.9L576 430.6Z" fill="#d091b0" stroke="#d091b0"></path><path d="M646 349.1L640 350.6L641 413.9Z" fill="#dd90ab" stroke="#dd90ab"></path><path d="M614 369L640 350.6L610 312.9Z" fill="#9e93ac" stroke="#9e93ac"></path><path d="M189 112.7L209 136.9L266 136.6Z" fill="#9592a6" stroke="#9592a6"></path><path d="M321 514.6L362 501.6L359 497.3Z" fill="#a893b1" stroke="#a893b1"></path><path d="M362 501.6L361 524.1L403 491.3Z" fill="#fa928e" stroke="#fa928e"></path><path d="M321 514.6L359 497.3L339 482.6Z" fill="#f39199" stroke="#f39199"></path><path d="M220 464.6L264 483.4L275 425.3Z" fill="#9592a6" stroke="#9592a6"></path><path d="M275 425.3L264 483.4L327 443.4Z" fill="#fa928e" stroke="#fa928e"></path><path d="M196 147.4L185 174.1L200 203.3Z" fill="#b593b3" stroke="#b593b3"></path><path d="M186 204.4L160 205L204 275.3Z" fill="#b593b3" stroke="#b593b3"></path><path d="M509 71.6L447 39.7L488 101.7Z" fill="#d091b0" stroke="#d091b0"></path><path d="M353 67.6L346 27.9L299 69.9Z" fill="#a893b1" stroke="#a893b1"></path><path d="M264 483.4L321 514.6L339 482.6Z" fill="#f39199" stroke="#f39199"></path><path d="M641 413.9L640 350.6L614 369Z" fill="#dd90ab" stroke="#dd90ab"></path><path d="M640 350.6L646 349.1L610 312.9Z" fill="#9e93ac" stroke="#9e93ac"></path><path d="M209 136.9L196 147.4L200 203.3Z" fill="#9592a6" stroke="#9592a6"></path><path d="M522 52.7L510 52.9L509 71.6Z" fill="#a893b1" stroke="#a893b1"></path><path d="M509 71.6L510 52.9L447 39.7Z" fill="#d091b0" stroke="#d091b0"></path><path d="M522 52.7L509 71.6L520 78.9Z" fill="#e990a3" stroke="#e990a3"></path><path d="M141 187.3L160 205L185 174.1Z" fill="#9e93ac" stroke="#9e93ac"></path><path d="M185 174.1L160 205L186 204.4Z" fill="#ff9681" stroke="#ff9681"></path><path d="M556 64.6L520 78.9L554 118.4Z" fill="#9592a6" stroke="#9592a6"></path><path d="M433 0L396 0L447 39.7Z" fill="#9e93ac" stroke="#9e93ac"></path><path d="M156 365.6L220 464.6L273 395.9Z" fill="#b593b3" stroke="#b593b3"></path><path d="M266 558.4L320 555.4L321 514.6Z" fill="#d091b0" stroke="#d091b0"></path><path d="M156 365.6L207 323.7L189 325.9Z" fill="#9e93ac" stroke="#9e93ac"></path><path d="M396 0L353 67.6L389 89.4Z" fill="#9592a6" stroke="#9592a6"></path><path d="M189 112.7L186 118.7L209 136.9Z" fill="#ff9681" stroke="#ff9681"></path><path d="M642 120.9L575 82.9L581 120.3Z" fill="#a893b1" stroke="#a893b1"></path><path d="M581 120.3L575 82.9L554 118.4Z" fill="#ff9681" stroke="#ff9681"></path><path d="M145 364.7L156 365.6L189 325.9Z" fill="#9592a6" stroke="#9592a6"></path><path d="M575 82.9L556 64.6L554 118.4Z" fill="#ff9681" stroke="#ff9681"></path><path d="M166 464.3L216 467.7L220 464.6Z" fill="#d091b0" stroke="#d091b0"></path><path d="M220 464.6L216 467.7L264 483.4Z" fill="#ff9681" stroke="#ff9681"></path><path d="M654 166.6L614 218.1L615 219.1Z" fill="#b593b3" stroke="#b593b3"></path><path d="M654 166.6L594 198.3L614 218.1Z" fill="#9592a6" stroke="#9592a6"></path><path d="M628 467.6L576 430.6L591 517.4Z" fill="#9592a6" stroke="#9592a6"></path><path d="M576 430.6L641 413.9L589 397.4Z" fill="#ff9681" stroke="#ff9681"></path><path d="M694 349.9L675 327.7L646 349.1Z" fill="#9e93ac" stroke="#9e93ac"></path><path d="M646 349.1L675 327.7L610 312.9Z" fill="#9592a6" stroke="#9592a6"></path><path d="M58 288.1L145 364.7L189 325.9Z" fill="#b593b3" stroke="#b593b3"></path><path d="M156 365.6L166 464.3L220 464.6Z" fill="#a893b1" stroke="#a893b1"></path><path d="M713 186.1L654 166.6L615 219.1Z" fill="#9592a6" stroke="#9592a6"></path><path d="M196 147.4L171 118.3L185 174.1Z" fill="#c292b3" stroke="#c292b3"></path><path d="M209 136.9L186 118.7L196 147.4Z" fill="#dd90ab" stroke="#dd90ab"></path><path d="M189 112.7L266 136.6L299 69.9Z" fill="#9e93ac" stroke="#9e93ac"></path><path d="M201 0L189 112.7L299 69.9Z" fill="#f39199" stroke="#f39199"></path><path d="M593 33.7L559 52.9L575 82.9Z" fill="#f39199" stroke="#f39199"></path><path d="M575 82.9L559 52.9L556 64.6Z" fill="#9e93ac" stroke="#9e93ac"></path><path d="M556 64.6L559 52.9L522 52.7Z" fill="#d091b0" stroke="#d091b0"></path><path d="M433 0L447 39.7L454 0Z" fill="#c292b3" stroke="#c292b3"></path><path d="M447 39.7L396 0L389 89.4Z" fill="#d091b0" stroke="#d091b0"></path><path d="M171 118.3L196 147.4L186 118.7Z" fill="#e990a3" stroke="#e990a3"></path><path d="M171 118.3L141 187.3L185 174.1Z" fill="#b593b3" stroke="#b593b3"></path><path d="M160 205L121 204.4L204 275.3Z" fill="#c292b3" stroke="#c292b3"></path><path d="M654 166.6L645 132.7L630 137.3Z" fill="#9592a6" stroke="#9592a6"></path><path d="M630 137.3L642 120.9L581 120.3Z" fill="#ff9681" stroke="#ff9681"></path><path d="M447 39.7L510 52.9L454 0Z" fill="#b593b3" stroke="#b593b3"></path><path d="M346 27.9L333 0L299 69.9Z" fill="#9592a6" stroke="#9592a6"></path><path d="M454 0L510 52.9L539 0Z" fill="#e990a3" stroke="#e990a3"></path><path d="M396 0L370 0L346 27.9Z" fill="#ff9681" stroke="#ff9681"></path><path d="M266 558.4L321 514.6L264 483.4Z" fill="#b593b3" stroke="#b593b3"></path><path d="M321 514.6L320 555.4L361 524.1Z" fill="#f39199" stroke="#f39199"></path><path d="M397 600L405 600L422 525.6Z" fill="#d091b0" stroke="#d091b0"></path><path d="M663 123.4L642 120.9L645 132.7Z" fill="#dd90ab" stroke="#dd90ab"></path><path d="M645 132.7L642 120.9L630 137.3Z" fill="#a893b1" stroke="#a893b1"></path><path d="M158 81.6L171 118.3L189 112.7Z" fill="#9e93ac" stroke="#9e93ac"></path><path d="M189 112.7L171 118.3L186 118.7Z" fill="#ff9681" stroke="#ff9681"></path><path d="M539 0L510 52.9L522 52.7Z" fill="#d091b0" stroke="#d091b0"></path><path d="M370 0L347 0L346 27.9Z" fill="#9e93ac" stroke="#9e93ac"></path><path d="M576 430.6L542 449.4L591 517.4Z" fill="#b593b3" stroke="#b593b3"></path><path d="M631 472.3L628 467.6L591 517.4Z" fill="#b593b3" stroke="#b593b3"></path><path d="M641 413.9L694 349.9L646 349.1Z" fill="#9592a6" stroke="#9592a6"></path><path d="M743 298.9L695 281L675 327.7Z" fill="#9592a6" stroke="#9592a6"></path><path d="M675 327.7L695 281L610 301.7Z" fill="#e990a3" stroke="#e990a3"></path><path d="M654 166.6L662 146.4L645 132.7Z" fill="#e990a3" stroke="#e990a3"></path><path d="M693 157.7L662 146.4L654 166.6Z" fill="#fa928e" stroke="#fa928e"></path><path d="M347 0L333 0L346 27.9Z" fill="#9592a6" stroke="#9592a6"></path><path d="M542 449.4L470 467.7L530 559.1Z" fill="#9592a6" stroke="#9592a6"></path><path d="M628 467.6L654 448.3L641 413.9Z" fill="#9e93ac" stroke="#9e93ac"></path><path d="M99 206.6L121 204.4L86 144.6Z" fill="#a893b1" stroke="#a893b1"></path><path d="M141 187.3L121 204.4L160 205Z" fill="#d091b0" stroke="#d091b0"></path><path d="M720 395.7L694 349.9L641 413.9Z" fill="#b593b3" stroke="#b593b3"></path><path d="M638 474.7L654 448.3L628 467.6Z" fill="#d091b0" stroke="#d091b0"></path><path d="M530 559.1L470 467.7L422 525.6Z" fill="#9592a6" stroke="#9592a6"></path><path d="M631 472.3L638 474.7L628 467.6Z" fill="#d091b0" stroke="#d091b0"></path><path d="M433 0L406 -17.1L396 0Z" fill="#9e93ac" stroke="#9e93ac"></path><path d="M396 0L406 -17.1L370 0Z" fill="#fa928e" stroke="#fa928e"></path><path d="M370 0L406 -17.1L347 0Z" fill="#9e93ac" stroke="#9e93ac"></path><path d="M347 0L406 -17.1L333 0Z" fill="#e990a3" stroke="#e990a3"></path><path d="M454 0L406 -17.1L433 0Z" fill="#fa928e" stroke="#fa928e"></path><path d="M114 421.6L166 464.3L156 365.6Z" fill="#9e93ac" stroke="#9e93ac"></path><path d="M216 467.7L222 533.3L264 483.4Z" fill="#ff9681" stroke="#ff9681"></path><path d="M637 499.3L638 474.7L631 472.3Z" fill="#c292b3" stroke="#c292b3"></path><path d="M693 157.7L663 123.4L662 146.4Z" fill="#a893b1" stroke="#a893b1"></path><path d="M662 146.4L663 123.4L645 132.7Z" fill="#dd90ab" stroke="#dd90ab"></path><path d="M624 57.7L593 33.7L575 82.9Z" fill="#a893b1" stroke="#a893b1"></path><path d="M487 592.3L530 559.1L422 525.6Z" fill="#d091b0" stroke="#d091b0"></path><path d="M166 464.3L186 497.4L216 467.7Z" fill="#9e93ac" stroke="#9e93ac"></path><path d="M222 533.3L266 558.4L264 483.4Z" fill="#d091b0" stroke="#d091b0"></path><path d="M397 600L422 525.6L361 524.1Z" fill="#e990a3" stroke="#e990a3"></path><path d="M145 364.7L114 421.6L156 365.6Z" fill="#b593b3" stroke="#b593b3"></path><path d="M166 464.3L108 472.1L186 497.4Z" fill="#b593b3" stroke="#b593b3"></path><path d="M58 288.1L108 370.7L145 364.7Z" fill="#c292b3" stroke="#c292b3"></path><path d="M186 497.4L222 533.3L216 467.7Z" fill="#a893b1" stroke="#a893b1"></path><path d="M624 57.7L575 82.9L642 120.9Z" fill="#9e93ac" stroke="#9e93ac"></path><path d="M559 52.9L539 0L522 52.7Z" fill="#ff9681" stroke="#ff9681"></path><path d="M454 0L539 0L406 -17.1Z" fill="#b593b3" stroke="#b593b3"></path><path d="M108 370.7L110 383.9L145 364.7Z" fill="#a893b1" stroke="#a893b1"></path><path d="M550 0L539 0L559 52.9Z" fill="#fa928e" stroke="#fa928e"></path><path d="M713 186.1L693 157.7L654 166.6Z" fill="#d091b0" stroke="#d091b0"></path><path d="M663 123.4L624 57.7L642 120.9Z" fill="#dd90ab" stroke="#dd90ab"></path><path d="M658 38.6L624 57.7L681 45.6Z" fill="#e990a3" stroke="#e990a3"></path><path d="M234 -35.1L270 0L333 0Z" fill="#fa928e" stroke="#fa928e"></path><path d="M333 0L270 0L299 69.9Z" fill="#ff9681" stroke="#ff9681"></path><path d="M86 144.6L121 204.4L141 187.3Z" fill="#f39199" stroke="#f39199"></path><path d="M121 204.4L92 217.1L204 275.3Z" fill="#a893b1" stroke="#a893b1"></path><path d="M678 497.4L637 499.3L672 521.6Z" fill="#a893b1" stroke="#a893b1"></path><path d="M591 517.4L637 499.3L631 472.3Z" fill="#dd90ab" stroke="#dd90ab"></path><path d="M638 474.7L678 497.4L654 448.3Z" fill="#a893b1" stroke="#a893b1"></path><path d="M714 430.4L720 395.7L641 413.9Z" fill="#fa928e" stroke="#fa928e"></path><path d="M397 600L361 524.1L335 600Z" fill="#9e93ac" stroke="#9e93ac"></path><path d="M335 600L361 524.1L320 555.4Z" fill="#ff9681" stroke="#ff9681"></path><path d="M632 -5.1L550 0L593 33.7Z" fill="#9e93ac" stroke="#9e93ac"></path><path d="M593 33.7L550 0L559 52.9Z" fill="#e990a3" stroke="#e990a3"></path><path d="M539 0L550 0L406 -17.1Z" fill="#f39199" stroke="#f39199"></path><path d="M405 600L421 600L422 525.6Z" fill="#dd90ab" stroke="#dd90ab"></path><path d="M157 75.9L158 81.6L189 112.7Z" fill="#ff9681" stroke="#ff9681"></path><path d="M171 118.3L128 115.4L141 187.3Z" fill="#ff9681" stroke="#ff9681"></path><path d="M421 600L446 600L422 525.6Z" fill="#9592a6" stroke="#9592a6"></path><path d="M468 600L487 592.3L422 525.6Z" fill="#d091b0" stroke="#d091b0"></path><path d="M530 559.1L570 600L591 517.4Z" fill="#e990a3" stroke="#e990a3"></path><path d="M60 219L92 217.1L99 206.6Z" fill="#fa928e" stroke="#fa928e"></path><path d="M99 206.6L92 217.1L121 204.4Z" fill="#9e93ac" stroke="#9e93ac"></path><path d="M487 592.3L519 583.3L530 559.1Z" fill="#9e93ac" stroke="#9e93ac"></path><path d="M695 281L713 186.1L615 219.1Z" fill="#dd90ab" stroke="#dd90ab"></path><path d="M693 157.7L714 119.3L663 123.4Z" fill="#c292b3" stroke="#c292b3"></path><path d="M728 271L713 186.1L695 281Z" fill="#9592a6" stroke="#9592a6"></path><path d="M743 298.9L675 327.7L694 349.9Z" fill="#dd90ab" stroke="#dd90ab"></path><path d="M743 298.9L728 271L695 281Z" fill="#e990a3" stroke="#e990a3"></path><path d="M52 457.6L114 421.6L110 383.9Z" fill="#fa928e" stroke="#fa928e"></path><path d="M110 383.9L114 421.6L145 364.7Z" fill="#b593b3" stroke="#b593b3"></path><path d="M446 600L468 600L422 525.6Z" fill="#fa928e" stroke="#fa928e"></path><path d="M516 633.1L539 600L519 583.3Z" fill="#9e93ac" stroke="#9e93ac"></path><path d="M162 34.6L157 75.9L189 112.7Z" fill="#b593b3" stroke="#b593b3"></path><path d="M158 81.6L128 115.4L171 118.3Z" fill="#dd90ab" stroke="#dd90ab"></path><path d="M120 68.7L128 115.4L158 81.6Z" fill="#d091b0" stroke="#d091b0"></path><path d="M266 583.1L320 555.4L266 558.4Z" fill="#f39199" stroke="#f39199"></path><path d="M266 583.1L335 600L320 555.4Z" fill="#ff9681" stroke="#ff9681"></path><path d="M405 600L401 610.1L421 600Z" fill="#b593b3" stroke="#b593b3"></path><path d="M421 600L401 610.1L446 600Z" fill="#a893b1" stroke="#a893b1"></path><path d="M446 600L516 633.1L468 600Z" fill="#ff9681" stroke="#ff9681"></path><path d="M397 600L401 610.1L405 600Z" fill="#dd90ab" stroke="#dd90ab"></path><path d="M391 610.1L401 610.1L397 600Z" fill="#9592a6" stroke="#9592a6"></path><path d="M335 600L391 610.1L397 600Z" fill="#dd90ab" stroke="#dd90ab"></path><path d="M223 584.3L266 583.1L266 558.4Z" fill="#f39199" stroke="#f39199"></path><path d="M223 584.3L266 558.4L222 533.3Z" fill="#f39199" stroke="#f39199"></path><path d="M223 584.3L222 533.3L174 563.4Z" fill="#9592a6" stroke="#9592a6"></path><path d="M714 430.4L641 413.9L654 448.3Z" fill="#e990a3" stroke="#e990a3"></path><path d="M749 322.1L743 298.9L694 349.9Z" fill="#9592a6" stroke="#9592a6"></path><path d="M728 271L745 266.4L713 186.1Z" fill="#9592a6" stroke="#9592a6"></path><path d="M743 298.9L745 266.4L728 271Z" fill="#9592a6" stroke="#9592a6"></path><path d="M678 497.4L714 430.4L654 448.3Z" fill="#d091b0" stroke="#d091b0"></path><path d="M756 385.7L749 322.1L694 349.9Z" fill="#c292b3" stroke="#c292b3"></path><path d="M516 633.1L487 592.3L468 600Z" fill="#ff9681" stroke="#ff9681"></path><path d="M516 633.1L519 583.3L487 592.3Z" fill="#dd90ab" stroke="#dd90ab"></path><path d="M519 583.3L539 600L530 559.1Z" fill="#c292b3" stroke="#c292b3"></path><path d="M637 499.3L678 497.4L638 474.7Z" fill="#e990a3" stroke="#e990a3"></path><path d="M756 385.7L694 349.9L720 395.7Z" fill="#d091b0" stroke="#d091b0"></path><path d="M743 298.9L770 247.3L745 266.4Z" fill="#d091b0" stroke="#d091b0"></path><path d="M683 504.4L678 497.4L672 521.6Z" fill="#c292b3" stroke="#c292b3"></path><path d="M60 219L58 288.1L92 217.1Z" fill="#fa928e" stroke="#fa928e"></path><path d="M92 217.1L58 288.1L204 275.3Z" fill="#e990a3" stroke="#e990a3"></path><path d="M108 370.7L39 355.1L110 383.9Z" fill="#fa928e" stroke="#fa928e"></path><path d="M201 0L162 34.6L189 112.7Z" fill="#c292b3" stroke="#c292b3"></path><path d="M157 75.9L120 68.7L158 81.6Z" fill="#dd90ab" stroke="#dd90ab"></path><path d="M90 132.7L86 144.6L128 115.4Z" fill="#fa928e" stroke="#fa928e"></path><path d="M128 115.4L86 144.6L141 187.3Z" fill="#a893b1" stroke="#a893b1"></path><path d="M748 184.3L693 157.7L713 186.1Z" fill="#fa928e" stroke="#fa928e"></path><path d="M748 184.3L714 119.3L693 157.7Z" fill="#ff9681" stroke="#ff9681"></path><path d="M624 57.7L632 -5.1L593 33.7Z" fill="#f39199" stroke="#f39199"></path><path d="M270 0L201 0L299 69.9Z" fill="#fa928e" stroke="#fa928e"></path><path d="M234 -35.1L201 0L270 0Z" fill="#9e93ac" stroke="#9e93ac"></path><path d="M82 115.9L90 132.7L128 115.4Z" fill="#9592a6" stroke="#9592a6"></path><path d="M201 0L199 0L162 34.6Z" fill="#d091b0" stroke="#d091b0"></path><path d="M234 -35.1L199 0L201 0Z" fill="#9592a6" stroke="#9592a6"></path><path d="M681 45.6L624 57.7L663 123.4Z" fill="#dd90ab" stroke="#dd90ab"></path><path d="M26 171.3L60 219L86 144.6Z" fill="#9e93ac" stroke="#9e93ac"></path><path d="M86 144.6L60 219L99 206.6Z" fill="#b593b3" stroke="#b593b3"></path><path d="M174 563.4L222 533.3L186 497.4Z" fill="#b593b3" stroke="#b593b3"></path><path d="M262 617.1L346 635.1L335 600Z" fill="#dd90ab" stroke="#dd90ab"></path><path d="M335 600L346 635.1L391 610.1Z" fill="#9592a6" stroke="#9592a6"></path><path d="M52 457.6L108 472.1L114 421.6Z" fill="#e990a3" stroke="#e990a3"></path><path d="M114 421.6L108 472.1L166 464.3Z" fill="#fa928e" stroke="#fa928e"></path><path d="M70 16.9L140 48.9L162 34.6Z" fill="#e990a3" stroke="#e990a3"></path><path d="M162 34.6L140 48.9L157 75.9Z" fill="#d091b0" stroke="#d091b0"></path><path d="M672 521.6L637 499.3L665 581.3Z" fill="#fa928e" stroke="#fa928e"></path><path d="M678 497.4L728 474.1L714 430.4Z" fill="#b593b3" stroke="#b593b3"></path><path d="M745 266.4L748 184.3L713 186.1Z" fill="#fa928e" stroke="#fa928e"></path><path d="M770 247.3L748 184.3L745 266.4Z" fill="#c292b3" stroke="#c292b3"></path><path d="M140 48.9L120 68.7L157 75.9Z" fill="#f39199" stroke="#f39199"></path><path d="M516 633.1L570 600L539 600Z" fill="#c292b3" stroke="#c292b3"></path><path d="M539 600L570 600L530 559.1Z" fill="#e990a3" stroke="#e990a3"></path><path d="M262 617.1L335 600L266 583.1Z" fill="#f39199" stroke="#f39199"></path><path d="M391 610.1L346 635.1L401 610.1Z" fill="#9592a6" stroke="#9592a6"></path><path d="M401 610.1L516 633.1L446 600Z" fill="#f39199" stroke="#f39199"></path><path d="M665 581.3L637 499.3L591 517.4Z" fill="#dd90ab" stroke="#dd90ab"></path><path d="M728 474.1L742 408.4L714 430.4Z" fill="#9e93ac" stroke="#9e93ac"></path><path d="M714 430.4L742 408.4L720 395.7Z" fill="#ff9681" stroke="#ff9681"></path><path d="M82 115.9L77 136.4L90 132.7Z" fill="#f39199" stroke="#f39199"></path><path d="M90 132.7L77 136.4L86 144.6Z" fill="#b593b3" stroke="#b593b3"></path><path d="M672 521.6L692 502.6L683 504.4Z" fill="#d091b0" stroke="#d091b0"></path><path d="M683 504.4L692 502.6L678 497.4Z" fill="#dd90ab" stroke="#dd90ab"></path><path d="M70 16.9L120 68.7L140 48.9Z" fill="#9e93ac" stroke="#9e93ac"></path><path d="M406 -17.1L234 -35.1L333 0Z" fill="#e990a3" stroke="#e990a3"></path><path d="M0 280.3L47 326L58 288.1Z" fill="#a893b1" stroke="#a893b1"></path><path d="M58 288.1L47 326L108 370.7Z" fill="#dd90ab" stroke="#dd90ab"></path><path d="M714 119.3L681 45.6L663 123.4Z" fill="#ff9681" stroke="#ff9681"></path><path d="M658 38.6L632 -5.1L624 57.7Z" fill="#f39199" stroke="#f39199"></path><path d="M727 76.4L681 45.6L714 119.3Z" fill="#d091b0" stroke="#d091b0"></path><path d="M108 472.1L174 563.4L186 497.4Z" fill="#9592a6" stroke="#9592a6"></path><path d="M232 611.3L262 617.1L266 583.1Z" fill="#dd90ab" stroke="#dd90ab"></path><path d="M232 611.3L266 583.1L223 584.3Z" fill="#c292b3" stroke="#c292b3"></path><path d="M90 73.6L82 115.9L128 115.4Z" fill="#9e93ac" stroke="#9e93ac"></path><path d="M826 362.9L756 385.7L829 438.9Z" fill="#dd90ab" stroke="#dd90ab"></path><path d="M742 408.4L756 385.7L720 395.7Z" fill="#9e93ac" stroke="#9e93ac"></path><path d="M807 329.6L770 247.3L743 298.9Z" fill="#b593b3" stroke="#b593b3"></path><path d="M801 204.6L770 247.3L867 294.7Z" fill="#fa928e" stroke="#fa928e"></path><path d="M661 0L632 -5.1L658 38.6Z" fill="#a893b1" stroke="#a893b1"></path><path d="M550 0L632 -5.1L406 -17.1Z" fill="#e990a3" stroke="#e990a3"></path><path d="M406 -17.1L795 -30.1L234 -35.1Z" fill="#dd90ab" stroke="#dd90ab"></path><path d="M192 600L221 600L223 584.3Z" fill="#a893b1" stroke="#a893b1"></path><path d="M346 635.1L516 633.1L401 610.1Z" fill="#fa928e" stroke="#fa928e"></path><path d="M192 600L232 611.3L221 600Z" fill="#ff9681" stroke="#ff9681"></path><path d="M221 600L232 611.3L223 584.3Z" fill="#fa928e" stroke="#fa928e"></path><path d="M262 617.1L257 654.1L346 635.1Z" fill="#b593b3" stroke="#b593b3"></path><path d="M0 336.6L39 355.1L47 326Z" fill="#c292b3" stroke="#c292b3"></path><path d="M47 326L39 355.1L108 370.7Z" fill="#dd90ab" stroke="#dd90ab"></path><path d="M26 171.3L36 227.1L60 219Z" fill="#b593b3" stroke="#b593b3"></path><path d="M60 219L36 227.1L58 288.1Z" fill="#f39199" stroke="#f39199"></path><path d="M26 171.3L86 144.6L77 136.4Z" fill="#e990a3" stroke="#e990a3"></path><path d="M692 502.6L728 474.1L678 497.4Z" fill="#b593b3" stroke="#b593b3"></path><path d="M717 495.6L728 474.1L692 502.6Z" fill="#b593b3" stroke="#b593b3"></path><path d="M688 575.3L717 495.6L692 502.6Z" fill="#f39199" stroke="#f39199"></path><path d="M688 575.3L692 502.6L672 521.6Z" fill="#f39199" stroke="#f39199"></path><path d="M120 68.7L90 73.6L128 115.4Z" fill="#f39199" stroke="#f39199"></path><path d="M0 121.4L26 171.3L77 136.4Z" fill="#a893b1" stroke="#a893b1"></path><path d="M70 16.9L90 73.6L120 68.7Z" fill="#fa928e" stroke="#fa928e"></path><path d="M70 16.9L162 34.6L199 0Z" fill="#f39199" stroke="#f39199"></path><path d="M698 0L661 0L681 45.6Z" fill="#d091b0" stroke="#d091b0"></path><path d="M681 45.6L661 0L658 38.6Z" fill="#a893b1" stroke="#a893b1"></path><path d="M768 140.9L714 119.3L748 184.3Z" fill="#ff9681" stroke="#ff9681"></path><path d="M767 117.7L727 76.4L714 119.3Z" fill="#a893b1" stroke="#a893b1"></path><path d="M623 615.1L619 600L570 600Z" fill="#a893b1" stroke="#a893b1"></path><path d="M570 600L619 600L591 517.4Z" fill="#a893b1" stroke="#a893b1"></path><path d="M190 600L192 600L174 563.4Z" fill="#9e93ac" stroke="#9e93ac"></path><path d="M174 563.4L192 600L223 584.3Z" fill="#ff9681" stroke="#ff9681"></path><path d="M159 600L190 600L174 563.4Z" fill="#d091b0" stroke="#d091b0"></path><path d="M192 600L257 654.1L232 611.3Z" fill="#9592a6" stroke="#9592a6"></path><path d="M770 140.3L768 140.9L803 162.1Z" fill="#ff9681" stroke="#ff9681"></path><path d="M803 162.1L768 140.9L748 184.3Z" fill="#e990a3" stroke="#e990a3"></path><path d="M768 140.9L767 117.7L714 119.3Z" fill="#c292b3" stroke="#c292b3"></path><path d="M39 355.1L52 457.6L110 383.9Z" fill="#fa928e" stroke="#fa928e"></path><path d="M130 600L159 600L174 563.4Z" fill="#f39199" stroke="#f39199"></path><path d="M619 600L665 581.3L591 517.4Z" fill="#ff9681" stroke="#ff9681"></path><path d="M0 121.4L77 136.4L13 88.4Z" fill="#9592a6" stroke="#9592a6"></path><path d="M36 227.1L0 280.3L58 288.1Z" fill="#b593b3" stroke="#b593b3"></path><path d="M587 656.1L623 615.1L570 600Z" fill="#f39199" stroke="#f39199"></path><path d="M619 600L673 600L665 581.3Z" fill="#f39199" stroke="#f39199"></path><path d="M770 140.3L767 117.7L768 140.9Z" fill="#a893b1" stroke="#a893b1"></path><path d="M708 0L698 0L681 45.6Z" fill="#c292b3" stroke="#c292b3"></path><path d="M232 611.3L257 654.1L262 617.1Z" fill="#a893b1" stroke="#a893b1"></path><path d="M346 635.1L587 656.1L516 633.1Z" fill="#fa928e" stroke="#fa928e"></path><path d="M190 600L257 654.1L192 600Z" fill="#dd90ab" stroke="#dd90ab"></path><path d="M130 600L174 563.4L108 472.1Z" fill="#a893b1" stroke="#a893b1"></path><path d="M190 600L159 600L257 654.1Z" fill="#9592a6" stroke="#9592a6"></path><path d="M801 204.6L748 184.3L770 247.3Z" fill="#d091b0" stroke="#d091b0"></path><path d="M801 204.6L800 200.6L748 184.3Z" fill="#d091b0" stroke="#d091b0"></path><path d="M770 140.3L806 127.7L767 117.7Z" fill="#d091b0" stroke="#d091b0"></path><path d="M807 329.6L743 298.9L749 322.1Z" fill="#dd90ab" stroke="#dd90ab"></path><path d="M815 331L807 329.6L826 362.9Z" fill="#a893b1" stroke="#a893b1"></path><path d="M756 385.7L807 329.6L749 322.1Z" fill="#f39199" stroke="#f39199"></path><path d="M807 329.6L756 385.7L826 362.9Z" fill="#9e93ac" stroke="#9e93ac"></path><path d="M0 221.6L0 280.3L36 227.1Z" fill="#c292b3" stroke="#c292b3"></path><path d="M39 355.1L0 408.9L52 457.6Z" fill="#9592a6" stroke="#9592a6"></path><path d="M678 600L688 575.3L665 581.3Z" fill="#9e93ac" stroke="#9e93ac"></path><path d="M665 581.3L688 575.3L672 521.6Z" fill="#e990a3" stroke="#e990a3"></path><path d="M783 541.1L829 438.9L728 474.1Z" fill="#ff9681" stroke="#ff9681"></path><path d="M708 0L681 45.6L727 76.4Z" fill="#e990a3" stroke="#e990a3"></path><path d="M661 0L698 0L632 -5.1Z" fill="#ff9681" stroke="#ff9681"></path><path d="M0 280.3L0 323.7L47 326Z" fill="#d091b0" stroke="#d091b0"></path><path d="M0 323.7L0 336.6L47 326Z" fill="#9592a6" stroke="#9592a6"></path><path d="M0 191.1L0 221.6L36 227.1Z" fill="#9e93ac" stroke="#9e93ac"></path><path d="M876 192.4L808 197.4L899 234Z" fill="#c292b3" stroke="#c292b3"></path><path d="M801 204.6L808 197.4L800 200.6Z" fill="#ff9681" stroke="#ff9681"></path><path d="M800 200.6L803 162.1L748 184.3Z" fill="#a893b1" stroke="#a893b1"></path><path d="M756 385.7L742 408.4L829 438.9Z" fill="#9e93ac" stroke="#9e93ac"></path><path d="M807 329.6L867 294.7L770 247.3Z" fill="#b593b3" stroke="#b593b3"></path><path d="M782 0L708 0L727 76.4Z" fill="#d091b0" stroke="#d091b0"></path><path d="M698 0L795 -30.1L632 -5.1Z" fill="#a893b1" stroke="#a893b1"></path><path d="M632 -5.1L795 -30.1L406 -17.1Z" fill="#b593b3" stroke="#b593b3"></path><path d="M815 93.4L727 76.4L767 117.7Z" fill="#9e93ac" stroke="#9e93ac"></path><path d="M623 615.1L673 600L619 600Z" fill="#9e93ac" stroke="#9e93ac"></path><path d="M257 654.1L587 656.1L346 635.1Z" fill="#dd90ab" stroke="#dd90ab"></path><path d="M516 633.1L587 656.1L570 600Z" fill="#ff9681" stroke="#ff9681"></path><path d="M623 615.1L587 656.1L673 600Z" fill="#c292b3" stroke="#c292b3"></path><path d="M808 197.4L803 162.1L800 200.6Z" fill="#ff9681" stroke="#ff9681"></path><path d="M26 171.3L0 191.1L36 227.1Z" fill="#d091b0" stroke="#d091b0"></path><path d="M-29 182.3L0 191.1L26 171.3Z" fill="#e990a3" stroke="#e990a3"></path><path d="M587 656.1L678 600L673 600Z" fill="#f39199" stroke="#f39199"></path><path d="M673 600L678 600L665 581.3Z" fill="#9592a6" stroke="#9592a6"></path><path d="M688 575.3L698 582.1L717 495.6Z" fill="#e990a3" stroke="#e990a3"></path><path d="M678 600L698 582.1L688 575.3Z" fill="#fa928e" stroke="#fa928e"></path><path d="M6 459.7L40 486.4L52 457.6Z" fill="#d091b0" stroke="#d091b0"></path><path d="M52 457.6L40 486.4L108 472.1Z" fill="#fa928e" stroke="#fa928e"></path><path d="M99 610.1L130 600L59 600Z" fill="#a893b1" stroke="#a893b1"></path><path d="M159 600L99 610.1L257 654.1Z" fill="#9592a6" stroke="#9592a6"></path><path d="M-3 384L0 395L39 355.1Z" fill="#ff9681" stroke="#ff9681"></path><path d="M-29 182.3L-3 384L0 336.6Z" fill="#ff9681" stroke="#ff9681"></path><path d="M0 336.6L-3 384L39 355.1Z" fill="#e990a3" stroke="#e990a3"></path><path d="M-29 182.3L0 336.6L0 323.7Z" fill="#ff9681" stroke="#ff9681"></path><path d="M-29 182.3L0 323.7L0 280.3Z" fill="#c292b3" stroke="#c292b3"></path><path d="M-29 182.3L0 280.3L0 221.6Z" fill="#a893b1" stroke="#a893b1"></path><path d="M0 395L0 408.9L39 355.1Z" fill="#f39199" stroke="#f39199"></path><path d="M-3 384L0 408.9L0 395Z" fill="#9592a6" stroke="#9592a6"></path><path d="M829 438.9L742 408.4L728 474.1Z" fill="#c292b3" stroke="#c292b3"></path><path d="M815 331L867 294.7L807 329.6Z" fill="#b593b3" stroke="#b593b3"></path><path d="M234 -35.1L70 16.9L199 0Z" fill="#c292b3" stroke="#c292b3"></path><path d="M13 88.4L77 136.4L82 115.9Z" fill="#e990a3" stroke="#e990a3"></path><path d="M811 140.9L770 140.3L803 162.1Z" fill="#f39199" stroke="#f39199"></path><path d="M811 140.9L806 127.7L770 140.3Z" fill="#ff9681" stroke="#ff9681"></path><path d="M811 140.9L803 162.1L876 192.4Z" fill="#b593b3" stroke="#b593b3"></path><path d="M876 192.4L803 162.1L808 197.4Z" fill="#dd90ab" stroke="#dd90ab"></path><path d="M-3 384L-1 423.9L0 408.9Z" fill="#9592a6" stroke="#9592a6"></path><path d="M0 408.9L-1 423.9L52 457.6Z" fill="#a893b1" stroke="#a893b1"></path><path d="M13 88.4L82 115.9L90 73.6Z" fill="#b593b3" stroke="#b593b3"></path><path d="M0 191.1L-29 182.3L0 221.6Z" fill="#a893b1" stroke="#a893b1"></path><path d="M-1 423.9L6 459.7L52 457.6Z" fill="#f39199" stroke="#f39199"></path><path d="M59 600L130 600L108 472.1Z" fill="#dd90ab" stroke="#dd90ab"></path><path d="M70 16.9L13 88.4L90 73.6Z" fill="#ff9681" stroke="#ff9681"></path><path d="M-29 182.3L0 464.3L-1 423.9Z" fill="#b593b3" stroke="#b593b3"></path><path d="M-1 423.9L0 464.3L6 459.7Z" fill="#d091b0" stroke="#d091b0"></path><path d="M6 459.7L0 464.3L40 486.4Z" fill="#e990a3" stroke="#e990a3"></path><path d="M0 61.7L-29 182.3L0 121.4Z" fill="#dd90ab" stroke="#dd90ab"></path><path d="M0 121.4L-29 182.3L26 171.3Z" fill="#a893b1" stroke="#a893b1"></path><path d="M-3 384L-29 182.3L-1 423.9Z" fill="#c292b3" stroke="#c292b3"></path><path d="M59 600L108 472.1L40 486.4Z" fill="#ff9681" stroke="#ff9681"></path><path d="M130 600L99 610.1L159 600Z" fill="#a893b1" stroke="#a893b1"></path><path d="M900 129.3L815 93.4L811 140.9Z" fill="#a893b1" stroke="#a893b1"></path><path d="M811 140.9L815 93.4L806 127.7Z" fill="#dd90ab" stroke="#dd90ab"></path><path d="M806 127.7L815 93.4L767 117.7Z" fill="#9592a6" stroke="#9592a6"></path><path d="M783 541.1L728 474.1L717 495.6Z" fill="#b593b3" stroke="#b593b3"></path><path d="M678 600L728 600L698 582.1Z" fill="#d091b0" stroke="#d091b0"></path><path d="M698 582.1L783 541.1L717 495.6Z" fill="#ff9681" stroke="#ff9681"></path><path d="M587 656.1L728 600L678 600Z" fill="#9e93ac" stroke="#9e93ac"></path><path d="M728 600L783 541.1L698 582.1Z" fill="#f39199" stroke="#f39199"></path><path d="M868 356.1L815 331L826 362.9Z" fill="#ff9681" stroke="#ff9681"></path><path d="M868 356.1L867 294.7L815 331Z" fill="#a893b1" stroke="#a893b1"></path><path d="M70 16.9L0 61.7L13 88.4Z" fill="#b593b3" stroke="#b593b3"></path><path d="M13 88.4L0 61.7L0 121.4Z" fill="#b593b3" stroke="#b593b3"></path><path d="M854 432.6L868 356.1L826 362.9Z" fill="#ff9681" stroke="#ff9681"></path><path d="M854 432.6L826 362.9L829 438.9Z" fill="#d091b0" stroke="#d091b0"></path><path d="M837 548.4L848 440.3L829 438.9Z" fill="#9e93ac" stroke="#9e93ac"></path><path d="M42 590.3L59 600L40 486.4Z" fill="#a893b1" stroke="#a893b1"></path><path d="M99 610.1L61 615.1L257 654.1Z" fill="#c292b3" stroke="#c292b3"></path><path d="M815 93.4L782 0L727 76.4Z" fill="#c292b3" stroke="#c292b3"></path><path d="M708 0L795 -30.1L698 0Z" fill="#f39199" stroke="#f39199"></path><path d="M900 462.6L854 432.6L848 440.3Z" fill="#b593b3" stroke="#b593b3"></path><path d="M848 440.3L854 432.6L829 438.9Z" fill="#9e93ac" stroke="#9e93ac"></path><path d="M0 564.4L42 590.3L40 486.4Z" fill="#dd90ab" stroke="#dd90ab"></path><path d="M44 612.3L61 615.1L59 600Z" fill="#c292b3" stroke="#c292b3"></path><path d="M59 600L61 615.1L99 610.1Z" fill="#d091b0" stroke="#d091b0"></path><path d="M899 234L801 204.6L867 294.7Z" fill="#fa928e" stroke="#fa928e"></path><path d="M899 234L808 197.4L801 204.6Z" fill="#9592a6" stroke="#9592a6"></path><path d="M852 34.6L795 -30.1L782 0Z" fill="#fa928e" stroke="#fa928e"></path><path d="M842 653.1L771 600L728 600Z" fill="#a893b1" stroke="#a893b1"></path><path d="M728 600L771 600L783 541.1Z" fill="#9592a6" stroke="#9592a6"></path><path d="M783 541.1L837 548.4L829 438.9Z" fill="#9592a6" stroke="#9592a6"></path><path d="M5 0L-5 18.7L70 16.9Z" fill="#e990a3" stroke="#e990a3"></path><path d="M70 16.9L-5 18.7L0 61.7Z" fill="#9592a6" stroke="#9592a6"></path><path d="M0 61.7L-5 18.7L-29 182.3Z" fill="#e990a3" stroke="#e990a3"></path><path d="M0 600L44 612.3L42 590.3Z" fill="#a893b1" stroke="#a893b1"></path><path d="M42 590.3L44 612.3L59 600Z" fill="#e990a3" stroke="#e990a3"></path><path d="M61 615.1L0 624.1L257 654.1Z" fill="#b593b3" stroke="#b593b3"></path><path d="M0 -29.1L5 0L70 16.9Z" fill="#b593b3" stroke="#b593b3"></path><path d="M-29 182.3L0 564.4L0 464.3Z" fill="#dd90ab" stroke="#dd90ab"></path><path d="M0 464.3L0 564.4L40 486.4Z" fill="#dd90ab" stroke="#dd90ab"></path><path d="M0 -29.1L0 0L5 0Z" fill="#e990a3" stroke="#e990a3"></path><path d="M5 0L0 0L-5 18.7Z" fill="#e990a3" stroke="#e990a3"></path><path d="M900 327.7L867 294.7L868 356.1Z" fill="#f39199" stroke="#f39199"></path><path d="M900 327.7L900 306.1L867 294.7Z" fill="#d091b0" stroke="#d091b0"></path><path d="M900 306.1L900 253.4L867 294.7Z" fill="#d091b0" stroke="#d091b0"></path><path d="M900 253.4L899 234L867 294.7Z" fill="#d091b0" stroke="#d091b0"></path><path d="M852 34.6L782 0L815 93.4Z" fill="#a893b1" stroke="#a893b1"></path><path d="M900 372.9L900 327.7L868 356.1Z" fill="#e990a3" stroke="#e990a3"></path><path d="M0 -29.1L-4 0L0 0Z" fill="#f39199" stroke="#f39199"></path><path d="M0 0L-4 0L-5 18.7Z" fill="#f39199" stroke="#f39199"></path><path d="M-5 18.7L-4 0L-29 182.3Z" fill="#a893b1" stroke="#a893b1"></path><path d="M899 162.3L811 140.9L876 192.4Z" fill="#9e93ac" stroke="#9e93ac"></path><path d="M782 0L795 -30.1L708 0Z" fill="#dd90ab" stroke="#dd90ab"></path><path d="M900 378L900 372.9L868 356.1Z" fill="#f39199" stroke="#f39199"></path><path d="M900 378L868 356.1L854 432.6Z" fill="#d091b0" stroke="#d091b0"></path><path d="M918 443.3L900 378L854 432.6Z" fill="#f39199" stroke="#f39199"></path><path d="M771 600L837 548.4L783 541.1Z" fill="#dd90ab" stroke="#dd90ab"></path><path d="M925 225L876 192.4L899 234Z" fill="#fa928e" stroke="#fa928e"></path><path d="M925 225L899 162.3L876 192.4Z" fill="#fa928e" stroke="#fa928e"></path><path d="M902 85.7L852 34.6L815 93.4Z" fill="#d091b0" stroke="#d091b0"></path><path d="M234 -35.1L0 -29.1L70 16.9Z" fill="#d091b0" stroke="#d091b0"></path><path d="M-29 182.3L0 600L0 564.4Z" fill="#c292b3" stroke="#c292b3"></path><path d="M0 564.4L0 600L42 590.3Z" fill="#c292b3" stroke="#c292b3"></path><path d="M899 162.3L900 129.3L811 140.9Z" fill="#f39199" stroke="#f39199"></path><path d="M925 225L900 129.3L899 162.3Z" fill="#d091b0" stroke="#d091b0"></path><path d="M900 306.1L925 225L900 253.4Z" fill="#ff9681" stroke="#ff9681"></path><path d="M900 253.4L925 225L899 234Z" fill="#9e93ac" stroke="#9e93ac"></path><path d="M900 327.7L925 225L900 306.1Z" fill="#fa928e" stroke="#fa928e"></path><path d="M918 443.3L925 225L900 327.7Z" fill="#d091b0" stroke="#d091b0"></path><path d="M918 443.3L900 327.7L900 372.9Z" fill="#c292b3" stroke="#c292b3"></path><path d="M925 225L900 111.7L900 129.3Z" fill="#9592a6" stroke="#9592a6"></path><path d="M900 129.3L900 111.7L815 93.4Z" fill="#fa928e" stroke="#fa928e"></path><path d="M900 511.3L900 462.6L848 440.3Z" fill="#ff9681" stroke="#ff9681"></path><path d="M900 378L918 443.3L900 372.9Z" fill="#9592a6" stroke="#9592a6"></path><path d="M902 85.7L900 96.6L900 111.7Z" fill="#9592a6" stroke="#9592a6"></path><path d="M900 111.7L900 96.6L815 93.4Z" fill="#dd90ab" stroke="#dd90ab"></path><path d="M0 600L0 624.1L44 612.3Z" fill="#b593b3" stroke="#b593b3"></path><path d="M44 612.3L0 624.1L61 615.1Z" fill="#ff9681" stroke="#ff9681"></path><path d="M-29 182.3L0 624.1L0 600Z" fill="#dd90ab" stroke="#dd90ab"></path><path d="M925 225L902 85.7L900 111.7Z" fill="#dd90ab" stroke="#dd90ab"></path><path d="M900 96.6L902 85.7L815 93.4Z" fill="#ff9681" stroke="#ff9681"></path><path d="M852 34.6L870 0L795 -30.1Z" fill="#c292b3" stroke="#c292b3"></path><path d="M900 511.3L918 443.3L900 462.6Z" fill="#9592a6" stroke="#9592a6"></path><path d="M900 462.6L918 443.3L854 432.6Z" fill="#b593b3" stroke="#b593b3"></path><path d="M885 0L870 0L852 34.6Z" fill="#ff9681" stroke="#ff9681"></path><path d="M900 551.1L900 511.3L837 548.4Z" fill="#dd90ab" stroke="#dd90ab"></path><path d="M837 548.4L900 511.3L848 440.3Z" fill="#f39199" stroke="#f39199"></path><path d="M900 0L885 0L852 34.6Z" fill="#c292b3" stroke="#c292b3"></path><path d="M870 0L883 -30.1L795 -30.1Z" fill="#fa928e" stroke="#fa928e"></path><path d="M900 555.4L900 551.1L837 548.4Z" fill="#a893b1" stroke="#a893b1"></path><path d="M900 511.3L949 559.4L918 443.3Z" fill="#f39199" stroke="#f39199"></path><path d="M900 600L900 555.4L837 548.4Z" fill="#d091b0" stroke="#d091b0"></path><path d="M900 551.1L949 559.4L900 511.3Z" fill="#fa928e" stroke="#fa928e"></path><path d="M925 225L900 0L902 85.7Z" fill="#f39199" stroke="#f39199"></path><path d="M902 85.7L900 0L852 34.6Z" fill="#f39199" stroke="#f39199"></path><path d="M885 0L883 -30.1L870 0Z" fill="#b593b3" stroke="#b593b3"></path><path d="M900 -3.1L883 -30.1L885 0Z" fill="#b593b3" stroke="#b593b3"></path><path d="M795 -30.1L883 -30.1L234 -35.1Z" fill="#b593b3" stroke="#b593b3"></path><path d="M925 225L900 -3.1L900 0Z" fill="#9592a6" stroke="#9592a6"></path><path d="M900 0L900 -3.1L885 0Z" fill="#fa928e" stroke="#fa928e"></path><path d="M587 656.1L842 653.1L728 600Z" fill="#9e93ac" stroke="#9e93ac"></path><path d="M771 600L842 653.1L837 548.4Z" fill="#c292b3" stroke="#c292b3"></path><path d="M842 653.1L900 600L837 548.4Z" fill="#9e93ac" stroke="#9e93ac"></path><path d="M900 555.4L949 559.4L900 551.1Z" fill="#ff9681" stroke="#ff9681"></path><path d="M842 653.1L949 559.4L900 600Z" fill="#ff9681" stroke="#ff9681"></path><path d="M900 600L949 559.4L900 555.4Z" fill="#9592a6" stroke="#9592a6"></path><path d="M918 443.3L949 559.4L925 225Z" fill="#b593b3" stroke="#b593b3"></path></g></svg>