<svg id="visual" viewBox="0 0 900 600" width="900" height="600" xmlns="http://www.w3.org/2000/svg" xmlns:xlink="http://www.w3.org/1999/xlink" version="1.1"><rect x="0" y="0" width="900" height="600" fill="#f5c2d1"></rect><path d="M0 155L8.3 153.3C16.7 151.7 33.3 148.3 50 152.3C66.7 156.3 83.3 167.7 100 148.3C116.7 129 133.3 79 150 67.5C166.7 56 183.3 83 200 80C216.7 77 233.3 44 250 35.7C266.7 27.3 283.3 43.7 300 65.2C316.7 86.7 333.3 113.3 350 111.3C366.7 109.3 383.3 78.7 400 70.5C416.7 62.3 433.3 76.7 450 90C466.7 103.3 483.3 115.7 500 107C516.7 98.3 533.3 68.7 550 55.3C566.7 42 583.3 45 600 40.7C616.7 36.3 633.3 24.7 650 34.5C666.7 44.3 683.3 75.7 700 81C716.7 86.3 733.3 65.7 750 76.5C766.7 87.3 783.3 129.7 800 146.3C816.7 163 833.3 154 850 143.7C866.7 133.3 883.3 121.7 891.7 115.8L900 110L900 601L891.7 601C883.3 601 866.7 601 850 601C833.3 601 816.7 601 800 601C783.3 601 766.7 601 750 601C733.3 601 716.7 601 700 601C683.3 601 666.7 601 650 601C633.3 601 616.7 601 600 601C583.3 601 566.7 601 550 601C533.3 601 516.7 601 500 601C483.3 601 466.7 601 450 601C433.3 601 416.7 601 400 601C383.3 601 366.7 601 350 601C333.3 601 316.7 601 300 601C283.3 601 266.7 601 250 601C233.3 601 216.7 601 200 601C183.3 601 166.7 601 150 601C133.3 601 116.7 601 100 601C83.3 601 66.7 601 50 601C33.3 601 16.7 601 8.3 601L0 601Z" fill="#fa7268"></path><path d="M0 201L8.3 188.5C16.7 176 33.3 151 50 139C66.7 127 83.3 128 100 134C116.7 140 133.3 151 150 149.8C166.7 148.7 183.3 135.3 200 136C216.7 136.7 233.3 151.3 250 149C266.7 146.7 283.3 127.3 300 113.8C316.7 100.3 333.3 92.7 350 89C366.7 85.3 383.3 85.7 400 90.2C416.7 94.7 433.3 103.3 450 116.2C466.7 129 483.3 146 500 148.5C516.7 151 533.3 139 550 128.2C566.7 117.3 583.3 107.7 600 114.7C616.7 121.7 633.3 145.3 650 143C666.7 140.7 683.3 112.3 700 108.8C716.7 105.3 733.3 126.7 750 142.7C766.7 158.7 783.3 169.3 800 174.3C816.7 179.3 833.3 178.7 850 170.2C866.7 161.7 883.3 145.3 891.7 137.2L900 129L900 601L891.7 601C883.3 601 866.7 601 850 601C833.3 601 816.7 601 800 601C783.3 601 766.7 601 750 601C733.3 601 716.7 601 700 601C683.3 601 666.7 601 650 601C633.3 601 616.7 601 600 601C583.3 601 566.7 601 550 601C533.3 601 516.7 601 500 601C483.3 601 466.7 601 450 601C433.3 601 416.7 601 400 601C383.3 601 366.7 601 350 601C333.3 601 316.7 601 300 601C283.3 601 266.7 601 250 601C233.3 601 216.7 601 200 601C183.3 601 166.7 601 150 601C133.3 601 116.7 601 100 601C83.3 601 66.7 601 50 601C33.3 601 16.7 601 8.3 601L0 601Z" fill="#f46a65"></path><path d="M0 122L8.3 133.3C16.7 144.7 33.3 167.3 50 182.5C66.7 197.7 83.3 205.3 100 194.3C116.7 183.3 133.3 153.7 150 159.2C166.7 164.7 183.3 205.3 200 208.3C216.7 211.3 233.3 176.7 250 166.5C266.7 156.3 283.3 170.7 300 178C316.7 185.3 333.3 185.7 350 188.3C366.7 191 383.3 196 400 187.7C416.7 179.3 433.3 157.7 450 153.7C466.7 149.7 483.3 163.3 500 165C516.7 166.7 533.3 156.3 550 151.3C566.7 146.3 583.3 146.7 600 153.8C616.7 161 633.3 175 650 181C666.7 187 683.3 185 700 186.3C716.7 187.7 733.3 192.3 750 199.8C766.7 207.3 783.3 217.7 800 218.7C816.7 219.7 833.3 211.3 850 190.8C866.7 170.3 883.3 137.7 891.7 121.3L900 105L900 601L891.7 601C883.3 601 866.7 601 850 601C833.3 601 816.7 601 800 601C783.3 601 766.7 601 750 601C733.3 601 716.7 601 700 601C683.3 601 666.7 601 650 601C633.3 601 616.7 601 600 601C583.3 601 566.7 601 550 601C533.3 601 516.7 601 500 601C483.3 601 466.7 601 450 601C433.3 601 416.7 601 400 601C383.3 601 366.7 601 350 601C333.3 601 316.7 601 300 601C283.3 601 266.7 601 250 601C233.3 601 216.7 601 200 601C183.3 601 166.7 601 150 601C133.3 601 116.7 601 100 601C83.3 601 66.7 601 50 601C33.3 601 16.7 601 8.3 601L0 601Z" fill="#ee6262"></path><path d="M0 250L8.3 251.3C16.7 252.7 33.3 255.3 50 246.3C66.7 237.3 83.3 216.7 100 214.3C116.7 212 133.3 228 150 244.2C166.7 260.3 183.3 276.7 200 275.7C216.7 274.7 233.3 256.3 250 255.7C266.7 255 283.3 272 300 257.7C316.7 243.3 333.3 197.7 350 176C366.7 154.3 383.3 156.7 400 173.7C416.7 190.7 433.3 222.3 450 225.8C466.7 229.3 483.3 204.7 500 205.7C516.7 206.7 533.3 233.3 550 245.7C566.7 258 583.3 256 600 260.8C616.7 265.7 633.3 277.3 650 278.7C666.7 280 683.3 271 700 247.7C716.7 224.3 733.3 186.7 750 190C766.7 193.3 783.3 237.7 800 242.7C816.7 247.7 833.3 213.3 850 203.8C866.7 194.3 883.3 209.7 891.7 217.3L900 225L900 601L891.7 601C883.3 601 866.7 601 850 601C833.3 601 816.7 601 800 601C783.3 601 766.7 601 750 601C733.3 601 716.7 601 700 601C683.3 601 666.7 601 650 601C633.3 601 616.7 601 600 601C583.3 601 566.7 601 550 601C533.3 601 516.7 601 500 601C483.3 601 466.7 601 450 601C433.3 601 416.7 601 400 601C383.3 601 366.7 601 350 601C333.3 601 316.7 601 300 601C283.3 601 266.7 601 250 601C233.3 601 216.7 601 200 601C183.3 601 166.7 601 150 601C133.3 601 116.7 601 100 601C83.3 601 66.7 601 50 601C33.3 601 16.7 601 8.3 601L0 601Z" fill="#e85a5f"></path><path d="M0 235L8.3 236.7C16.7 238.3 33.3 241.7 50 249.5C66.7 257.3 83.3 269.7 100 274.8C116.7 280 133.3 278 150 274.7C166.7 271.3 183.3 266.7 200 264C216.7 261.3 233.3 260.7 250 254.7C266.7 248.7 283.3 237.3 300 236.3C316.7 235.3 333.3 244.7 350 259C366.7 273.3 383.3 292.7 400 304C416.7 315.3 433.3 318.7 450 299.7C466.7 280.7 483.3 239.3 500 219.8C516.7 200.3 533.3 202.7 550 220.5C566.7 238.3 583.3 271.7 600 282.2C616.7 292.7 633.3 280.3 650 269.8C666.7 259.3 683.3 250.7 700 256.5C716.7 262.3 733.3 282.7 750 281.5C766.7 280.3 783.3 257.7 800 243C816.7 228.3 833.3 221.7 850 224.2C866.7 226.7 883.3 238.3 891.7 244.2L900 250L900 601L891.7 601C883.3 601 866.7 601 850 601C833.3 601 816.7 601 800 601C783.3 601 766.7 601 750 601C733.3 601 716.7 601 700 601C683.3 601 666.7 601 650 601C633.3 601 616.7 601 600 601C583.3 601 566.7 601 550 601C533.3 601 516.7 601 500 601C483.3 601 466.7 601 450 601C433.3 601 416.7 601 400 601C383.3 601 366.7 601 350 601C333.3 601 316.7 601 300 601C283.3 601 266.7 601 250 601C233.3 601 216.7 601 200 601C183.3 601 166.7 601 150 601C133.3 601 116.7 601 100 601C83.3 601 66.7 601 50 601C33.3 601 16.7 601 8.3 601L0 601Z" fill="#e2525d"></path><path d="M0 297L8.3 297.5C16.7 298 33.3 299 50 298.2C66.7 297.3 83.3 294.7 100 287.3C116.7 280 133.3 268 150 266C166.7 264 183.3 272 200 274.8C216.7 277.7 233.3 275.3 250 272.3C266.7 269.3 283.3 265.7 300 276.8C316.7 288 333.3 314 350 327.5C366.7 341 383.3 342 400 345.7C416.7 349.3 433.3 355.7 450 357.8C466.7 360 483.3 358 500 349C516.7 340 533.3 324 550 309.5C566.7 295 583.3 282 600 273.3C616.7 264.7 633.3 260.3 650 258.8C666.7 257.3 683.3 258.7 700 256.8C716.7 255 733.3 250 750 259C766.7 268 783.3 291 800 310C816.7 329 833.3 344 850 333C866.7 322 883.3 285 891.7 266.5L900 248L900 601L891.7 601C883.3 601 866.7 601 850 601C833.3 601 816.7 601 800 601C783.3 601 766.7 601 750 601C733.3 601 716.7 601 700 601C683.3 601 666.7 601 650 601C633.3 601 616.7 601 600 601C583.3 601 566.7 601 550 601C533.3 601 516.7 601 500 601C483.3 601 466.7 601 450 601C433.3 601 416.7 601 400 601C383.3 601 366.7 601 350 601C333.3 601 316.7 601 300 601C283.3 601 266.7 601 250 601C233.3 601 216.7 601 200 601C183.3 601 166.7 601 150 601C133.3 601 116.7 601 100 601C83.3 601 66.7 601 50 601C33.3 601 16.7 601 8.3 601L0 601Z" fill="#db495a"></path><path d="M0 302L8.3 314.2C16.7 326.3 33.3 350.7 50 353.7C66.7 356.7 83.3 338.3 100 330.3C116.7 322.3 133.3 324.7 150 337.3C166.7 350 183.3 373 200 381C216.7 389 233.3 382 250 377C266.7 372 283.3 369 300 358.5C316.7 348 333.3 330 350 322.8C366.7 315.7 383.3 319.3 400 326.8C416.7 334.3 433.3 345.7 450 353C466.7 360.3 483.3 363.7 500 352.7C516.7 341.7 533.3 316.3 550 322C566.7 327.7 583.3 364.3 600 371.8C616.7 379.3 633.3 357.7 650 350.8C666.7 344 683.3 352 700 358.7C716.7 365.3 733.3 370.7 750 361.5C766.7 352.3 783.3 328.7 800 325.2C816.7 321.7 833.3 338.3 850 352.7C866.7 367 883.3 379 891.7 385L900 391L900 601L891.7 601C883.3 601 866.7 601 850 601C833.3 601 816.7 601 800 601C783.3 601 766.7 601 750 601C733.3 601 716.7 601 700 601C683.3 601 666.7 601 650 601C633.3 601 616.7 601 600 601C583.3 601 566.7 601 550 601C533.3 601 516.7 601 500 601C483.3 601 466.7 601 450 601C433.3 601 416.7 601 400 601C383.3 601 366.7 601 350 601C333.3 601 316.7 601 300 601C283.3 601 266.7 601 250 601C233.3 601 216.7 601 200 601C183.3 601 166.7 601 150 601C133.3 601 116.7 601 100 601C83.3 601 66.7 601 50 601C33.3 601 16.7 601 8.3 601L0 601Z" fill="#d54158"></path><path d="M0 357L8.3 357C16.7 357 33.3 357 50 352.7C66.7 348.3 83.3 339.7 100 349.2C116.7 358.7 133.3 386.3 150 388.3C166.7 390.3 183.3 366.7 200 360.5C216.7 354.3 233.3 365.7 250 376C266.7 386.3 283.3 395.7 300 392.7C316.7 389.7 333.3 374.3 350 363.3C366.7 352.3 383.3 345.7 400 354.3C416.7 363 433.3 387 450 399.5C466.7 412 483.3 413 500 407.7C516.7 402.3 533.3 390.7 550 380.7C566.7 370.7 583.3 362.3 600 365.5C616.7 368.7 633.3 383.3 650 394C666.7 404.7 683.3 411.3 700 406.3C716.7 401.3 733.3 384.7 750 373.2C766.7 361.7 783.3 355.3 800 352C816.7 348.7 833.3 348.3 850 347.3C866.7 346.3 883.3 344.7 891.7 343.8L900 343L900 601L891.7 601C883.3 601 866.7 601 850 601C833.3 601 816.7 601 800 601C783.3 601 766.7 601 750 601C733.3 601 716.7 601 700 601C683.3 601 666.7 601 650 601C633.3 601 616.7 601 600 601C583.3 601 566.7 601 550 601C533.3 601 516.7 601 500 601C483.3 601 466.7 601 450 601C433.3 601 416.7 601 400 601C383.3 601 366.7 601 350 601C333.3 601 316.7 601 300 601C283.3 601 266.7 601 250 601C233.3 601 216.7 601 200 601C183.3 601 166.7 601 150 601C133.3 601 116.7 601 100 601C83.3 601 66.7 601 50 601C33.3 601 16.7 601 8.3 601L0 601Z" fill="#ce3856"></path><path d="M0 397L8.3 406.3C16.7 415.7 33.3 434.3 50 434.2C66.7 434 83.3 415 100 412.2C116.7 409.3 133.3 422.7 150 422.8C166.7 423 183.3 410 200 405.7C216.7 401.3 233.3 405.7 250 410C266.7 414.3 283.3 418.7 300 427.3C316.7 436 333.3 449 350 441C366.7 433 383.3 404 400 396.7C416.7 389.3 433.3 403.7 450 419.2C466.7 434.7 483.3 451.3 500 458.3C516.7 465.3 533.3 462.7 550 459.8C566.7 457 583.3 454 600 440.5C616.7 427 633.3 403 650 398.8C666.7 394.7 683.3 410.3 700 419.7C716.7 429 733.3 432 750 426C766.7 420 783.3 405 800 399.3C816.7 393.7 833.3 397.3 850 411.8C866.7 426.3 883.3 451.7 891.7 464.3L900 477L900 601L891.7 601C883.3 601 866.7 601 850 601C833.3 601 816.7 601 800 601C783.3 601 766.7 601 750 601C733.3 601 716.7 601 700 601C683.3 601 666.7 601 650 601C633.3 601 616.7 601 600 601C583.3 601 566.7 601 550 601C533.3 601 516.7 601 500 601C483.3 601 466.7 601 450 601C433.3 601 416.7 601 400 601C383.3 601 366.7 601 350 601C333.3 601 316.7 601 300 601C283.3 601 266.7 601 250 601C233.3 601 216.7 601 200 601C183.3 601 166.7 601 150 601C133.3 601 116.7 601 100 601C83.3 601 66.7 601 50 601C33.3 601 16.7 601 8.3 601L0 601Z" fill="#c82e53"></path><path d="M0 498L8.3 490.2C16.7 482.3 33.3 466.7 50 470.2C66.7 473.7 83.3 496.3 100 495.5C116.7 494.7 133.3 470.3 150 464.8C166.7 459.3 183.3 472.7 200 483.2C216.7 493.7 233.3 501.3 250 504.2C266.7 507 283.3 505 300 506.5C316.7 508 333.3 513 350 504.5C366.7 496 383.3 474 400 462.7C416.7 451.3 433.3 450.7 450 457C466.7 463.3 483.3 476.7 500 474.2C516.7 471.7 533.3 453.3 550 449.2C566.7 445 583.3 455 600 458.3C616.7 461.7 633.3 458.3 650 462.8C666.7 467.3 683.3 479.7 700 488.3C716.7 497 733.3 502 750 497.2C766.7 492.3 783.3 477.7 800 477.2C816.7 476.7 833.3 490.3 850 496.5C866.7 502.7 883.3 501.3 891.7 500.7L900 500L900 601L891.7 601C883.3 601 866.7 601 850 601C833.3 601 816.7 601 800 601C783.3 601 766.7 601 750 601C733.3 601 716.7 601 700 601C683.3 601 666.7 601 650 601C633.3 601 616.7 601 600 601C583.3 601 566.7 601 550 601C533.3 601 516.7 601 500 601C483.3 601 466.7 601 450 601C433.3 601 416.7 601 400 601C383.3 601 366.7 601 350 601C333.3 601 316.7 601 300 601C283.3 601 266.7 601 250 601C233.3 601 216.7 601 200 601C183.3 601 166.7 601 150 601C133.3 601 116.7 601 100 601C83.3 601 66.7 601 50 601C33.3 601 16.7 601 8.3 601L0 601Z" fill="#c12451"></path><path d="M0 482L8.3 488C16.7 494 33.3 506 50 512.2C66.7 518.3 83.3 518.7 100 518.2C116.7 517.7 133.3 516.3 150 514.3C166.7 512.3 183.3 509.7 200 515.5C216.7 521.3 233.3 535.7 250 533.3C266.7 531 283.3 512 300 511.7C316.7 511.3 333.3 529.7 350 540C366.7 550.3 383.3 552.7 400 544.8C416.7 537 433.3 519 450 505.2C466.7 491.3 483.3 481.7 500 480.7C516.7 479.7 533.3 487.3 550 496.8C566.7 506.3 583.3 517.7 600 512.8C616.7 508 633.3 487 650 488C666.7 489 683.3 512 700 522.7C716.7 533.3 733.3 531.7 750 535.3C766.7 539 783.3 548 800 550.7C816.7 553.3 833.3 549.7 850 540.3C866.7 531 883.3 516 891.7 508.5L900 501L900 601L891.7 601C883.3 601 866.7 601 850 601C833.3 601 816.7 601 800 601C783.3 601 766.7 601 750 601C733.3 601 716.7 601 700 601C683.3 601 666.7 601 650 601C633.3 601 616.7 601 600 601C583.3 601 566.7 601 550 601C533.3 601 516.7 601 500 601C483.3 601 466.7 601 450 601C433.3 601 416.7 601 400 601C383.3 601 366.7 601 350 601C333.3 601 316.7 601 300 601C283.3 601 266.7 601 250 601C233.3 601 216.7 601 200 601C183.3 601 166.7 601 150 601C133.3 601 116.7 601 100 601C83.3 601 66.7 601 50 601C33.3 601 16.7 601 8.3 601L0 601Z" fill="#bb174f"></path><path d="M0 520L8.3 524.3C16.7 528.7 33.3 537.3 50 538.5C66.7 539.7 83.3 533.3 100 541.2C116.7 549 133.3 571 150 576.3C166.7 581.7 183.3 570.3 200 569.5C216.7 568.7 233.3 578.3 250 577.3C266.7 576.3 283.3 564.7 300 560.7C316.7 556.7 333.3 560.3 350 561.3C366.7 562.3 383.3 560.7 400 564.8C416.7 569 433.3 579 450 578.3C466.7 577.7 483.3 566.3 500 561.2C516.7 556 533.3 557 550 563.2C566.7 569.3 583.3 580.7 600 582.3C616.7 584 633.3 576 650 567.5C666.7 559 683.3 550 700 550.8C716.7 551.7 733.3 562.3 750 563.7C766.7 565 783.3 557 800 551C816.7 545 833.3 541 850 548.3C866.7 555.7 883.3 574.3 891.7 583.7L900 593L900 601L891.7 601C883.3 601 866.7 601 850 601C833.3 601 816.7 601 800 601C783.3 601 766.7 601 750 601C733.3 601 716.7 601 700 601C683.3 601 666.7 601 650 601C633.3 601 616.7 601 600 601C583.3 601 566.7 601 550 601C533.3 601 516.7 601 500 601C483.3 601 466.7 601 450 601C433.3 601 416.7 601 400 601C383.3 601 366.7 601 350 601C333.3 601 316.7 601 300 601C283.3 601 266.7 601 250 601C233.3 601 216.7 601 200 601C183.3 601 166.7 601 150 601C133.3 601 116.7 601 100 601C83.3 601 66.7 601 50 601C33.3 601 16.7 601 8.3 601L0 601Z" fill="#b4034d"></path></svg>