<svg id="visual" viewBox="0 0 900 600" width="900" height="600" xmlns="http://www.w3.org/2000/svg" xmlns:xlink="http://www.w3.org/1999/xlink" version="1.1"><g stroke-width="1" stroke-linejoin="bevel"><path d="M427.7 310.2L390.6 301.8L420.9 326.2Z" fill="#b798b7" stroke="#b798b7"></path><path d="M390.6 301.8L386.3 324.1L420.9 326.2Z" fill="#c497b6" stroke="#c497b6"></path><path d="M427.7 310.2L407.9 280.9L390.6 301.8Z" fill="#e992a5" stroke="#e992a5"></path><path d="M407.9 280.9L372.2 298.1L390.6 301.8Z" fill="#fa938f" stroke="#fa938f"></path><path d="M390.6 301.8L372.2 298.1L386.3 324.1Z" fill="#fa938f" stroke="#fa938f"></path><path d="M480.7 278.9L468.7 274.8L427.7 310.2Z" fill="#ac99b5" stroke="#ac99b5"></path><path d="M427.7 310.2L468.7 274.8L407.9 280.9Z" fill="#c497b6" stroke="#c497b6"></path><path d="M409.3 224.9L382.3 243.6L407.9 280.9Z" fill="#e992a5" stroke="#e992a5"></path><path d="M407.9 280.9L382.3 243.6L372.2 298.1Z" fill="#b798b7" stroke="#b798b7"></path><path d="M326.6 308.1L346.2 361.2L386.3 324.1Z" fill="#f3929b" stroke="#f3929b"></path><path d="M386.3 324.1L376.6 393.2L420.9 326.2Z" fill="#de93ad" stroke="#de93ad"></path><path d="M326.6 308.1L386.3 324.1L372.2 298.1Z" fill="#de93ad" stroke="#de93ad"></path><path d="M507.3 356.4L480.7 278.9L427.7 310.2Z" fill="#f3929b" stroke="#f3929b"></path><path d="M468.7 274.8L409.3 224.9L407.9 280.9Z" fill="#f3929b" stroke="#f3929b"></path><path d="M382.3 243.6L326.6 308.1L372.2 298.1Z" fill="#c497b6" stroke="#c497b6"></path><path d="M416.7 175.6L409.3 224.9L482.4 165.6Z" fill="#d195b3" stroke="#d195b3"></path><path d="M346.2 361.2L376.6 393.2L386.3 324.1Z" fill="#ff9681" stroke="#ff9681"></path><path d="M420.9 326.2L507.3 356.4L427.7 310.2Z" fill="#f3929b" stroke="#f3929b"></path><path d="M376.6 393.2L407.9 410.4L420.9 326.2Z" fill="#ff9681" stroke="#ff9681"></path><path d="M409.3 224.9L371.9 216.6L382.3 243.6Z" fill="#c497b6" stroke="#c497b6"></path><path d="M295.2 249.6L283.8 280.1L326.6 308.1Z" fill="#d195b3" stroke="#d195b3"></path><path d="M407.9 410.4L507.3 356.4L420.9 326.2Z" fill="#b798b7" stroke="#b798b7"></path><path d="M312.2 417.4L344.9 407.1L346.2 361.2Z" fill="#a299b0" stroke="#a299b0"></path><path d="M346.2 361.2L344.9 407.1L376.6 393.2Z" fill="#fa938f" stroke="#fa938f"></path><path d="M376.6 393.2L369.3 427.2L407.9 410.4Z" fill="#e992a5" stroke="#e992a5"></path><path d="M344.9 407.1L369.3 427.2L376.6 393.2Z" fill="#9b99aa" stroke="#9b99aa"></path><path d="M295.2 249.6L326.6 308.1L382.3 243.6Z" fill="#d195b3" stroke="#d195b3"></path><path d="M258.2 346.9L312.2 417.4L346.2 361.2Z" fill="#b798b7" stroke="#b798b7"></path><path d="M371.9 216.6L295.2 249.6L382.3 243.6Z" fill="#fa938f" stroke="#fa938f"></path><path d="M409.3 224.9L391.6 180.3L371.9 216.6Z" fill="#a299b0" stroke="#a299b0"></path><path d="M371.9 216.6L333.9 182.8L295.2 249.6Z" fill="#de93ad" stroke="#de93ad"></path><path d="M416.7 175.6L391.6 180.3L409.3 224.9Z" fill="#de93ad" stroke="#de93ad"></path><path d="M482.4 165.6L409.3 224.9L468.7 274.8Z" fill="#ac99b5" stroke="#ac99b5"></path><path d="M407.6 449.5L432.1 446.2L407.9 410.4Z" fill="#a299b0" stroke="#a299b0"></path><path d="M407.9 410.4L512.1 405.1L507.3 356.4Z" fill="#ff9681" stroke="#ff9681"></path><path d="M369.3 427.2L407.6 449.5L407.9 410.4Z" fill="#f3929b" stroke="#f3929b"></path><path d="M432.1 446.2L512.1 405.1L407.9 410.4Z" fill="#de93ad" stroke="#de93ad"></path><path d="M507.3 356.4L528.7 235.1L480.7 278.9Z" fill="#a299b0" stroke="#a299b0"></path><path d="M480.7 278.9L528.7 235.1L468.7 274.8Z" fill="#f3929b" stroke="#f3929b"></path><path d="M545.8 224.9L528.7 235.1L610.1 265.8Z" fill="#de93ad" stroke="#de93ad"></path><path d="M258.2 346.9L346.2 361.2L326.6 308.1Z" fill="#de93ad" stroke="#de93ad"></path><path d="M344.9 407.1L325.2 434.7L369.3 427.2Z" fill="#f3929b" stroke="#f3929b"></path><path d="M369.3 427.2L321.8 477.7L407.6 449.5Z" fill="#e992a5" stroke="#e992a5"></path><path d="M512.1 405.1L529.4 392.5L507.3 356.4Z" fill="#a299b0" stroke="#a299b0"></path><path d="M295.2 249.6L267.6 269.9L283.8 280.1Z" fill="#e992a5" stroke="#e992a5"></path><path d="M283.8 280.1L258.2 346.9L326.6 308.1Z" fill="#de93ad" stroke="#de93ad"></path><path d="M360.9 136.3L333.9 182.8L391.6 180.3Z" fill="#d195b3" stroke="#d195b3"></path><path d="M391.6 180.3L333.9 182.8L371.9 216.6Z" fill="#e992a5" stroke="#e992a5"></path><path d="M295.2 249.6L273.2 246.8L267.6 269.9Z" fill="#b798b7" stroke="#b798b7"></path><path d="M312.2 417.4L325.2 434.7L344.9 407.1Z" fill="#ff9681" stroke="#ff9681"></path><path d="M282.6 228.6L273.2 246.8L295.2 249.6Z" fill="#a299b0" stroke="#a299b0"></path><path d="M333.9 182.8L282.6 228.6L295.2 249.6Z" fill="#ac99b5" stroke="#ac99b5"></path><path d="M237.5 337.1L258.2 346.9L283.8 280.1Z" fill="#f3929b" stroke="#f3929b"></path><path d="M304.6 486.4L321.8 477.7L325.2 434.7Z" fill="#fa938f" stroke="#fa938f"></path><path d="M432.3 477.5L458.9 460.5L432.1 446.2Z" fill="#ac99b5" stroke="#ac99b5"></path><path d="M432.1 446.2L458.9 460.5L512.1 405.1Z" fill="#b798b7" stroke="#b798b7"></path><path d="M553.1 436.7L550.4 396.1L529.4 392.5Z" fill="#c497b6" stroke="#c497b6"></path><path d="M432.3 477.5L432.1 446.2L407.6 449.5Z" fill="#ac99b5" stroke="#ac99b5"></path><path d="M610.1 265.8L528.7 235.1L507.3 356.4Z" fill="#de93ad" stroke="#de93ad"></path><path d="M528.7 235.1L482.4 165.6L468.7 274.8Z" fill="#a299b0" stroke="#a299b0"></path><path d="M515.3 179.3L482.4 165.6L528.7 235.1Z" fill="#9b99aa" stroke="#9b99aa"></path><path d="M270.2 145.5L287.8 177.8L333.9 182.8Z" fill="#f3929b" stroke="#f3929b"></path><path d="M569.4 402.2L550.4 396.1L553.1 436.7Z" fill="#9b99aa" stroke="#9b99aa"></path><path d="M529.4 392.5L550.4 396.1L507.3 356.4Z" fill="#de93ad" stroke="#de93ad"></path><path d="M351.3 527.8L432.3 477.5L407.6 449.5Z" fill="#ff9681" stroke="#ff9681"></path><path d="M541.4 198.9L515.3 179.3L528.7 235.1Z" fill="#fa938f" stroke="#fa938f"></path><path d="M515.3 179.3L483.3 156.8L482.4 165.6Z" fill="#a299b0" stroke="#a299b0"></path><path d="M482.4 165.6L483.3 156.8L416.7 175.6Z" fill="#a299b0" stroke="#a299b0"></path><path d="M267.6 269.9L237.5 337.1L283.8 280.1Z" fill="#de93ad" stroke="#de93ad"></path><path d="M258.2 346.9L245.5 420.2L312.2 417.4Z" fill="#ac99b5" stroke="#ac99b5"></path><path d="M229.1 344.2L237.5 337.1L175.8 322.9Z" fill="#c497b6" stroke="#c497b6"></path><path d="M545.8 224.9L541.4 198.9L528.7 235.1Z" fill="#f3929b" stroke="#f3929b"></path><path d="M360.9 136.3L391.6 180.3L416.7 175.6Z" fill="#b798b7" stroke="#b798b7"></path><path d="M333.9 182.8L287.8 177.8L282.6 228.6Z" fill="#d195b3" stroke="#d195b3"></path><path d="M230.5 194.8L206.1 277.1L273.2 246.8Z" fill="#fa938f" stroke="#fa938f"></path><path d="M206.1 277.1L237.5 337.1L267.6 269.9Z" fill="#9b99aa" stroke="#9b99aa"></path><path d="M407.3 107.2L360.9 136.3L416.7 175.6Z" fill="#c497b6" stroke="#c497b6"></path><path d="M206.1 277.1L267.6 269.9L273.2 246.8Z" fill="#e992a5" stroke="#e992a5"></path><path d="M237.5 337.1L229.1 344.2L258.2 346.9Z" fill="#c497b6" stroke="#c497b6"></path><path d="M553.1 436.7L529.4 392.5L512.1 405.1Z" fill="#f3929b" stroke="#f3929b"></path><path d="M626.4 299.8L610.1 265.8L507.3 356.4Z" fill="#ff9681" stroke="#ff9681"></path><path d="M553.1 436.7L512.1 405.1L487.1 489.5Z" fill="#a299b0" stroke="#a299b0"></path><path d="M304.6 486.4L325.2 434.7L250.8 462.5Z" fill="#ff9681" stroke="#ff9681"></path><path d="M325.2 434.7L321.8 477.7L369.3 427.2Z" fill="#d195b3" stroke="#d195b3"></path><path d="M487.1 489.5L512.1 405.1L458.9 460.5Z" fill="#ff9681" stroke="#ff9681"></path><path d="M567.4 180.5L541.4 198.9L545.8 224.9Z" fill="#fa938f" stroke="#fa938f"></path><path d="M567.4 180.5L550.8 180.3L541.4 198.9Z" fill="#a299b0" stroke="#a299b0"></path><path d="M541.4 198.9L550.8 180.3L515.3 179.3Z" fill="#b798b7" stroke="#b798b7"></path><path d="M515.3 179.3L546.1 144.6L483.3 156.8Z" fill="#c497b6" stroke="#c497b6"></path><path d="M486.7 509.7L487.1 489.5L469.7 519.5Z" fill="#c497b6" stroke="#c497b6"></path><path d="M432.3 477.5L487.1 489.5L458.9 460.5Z" fill="#ac99b5" stroke="#ac99b5"></path><path d="M229.1 344.2L245.5 420.2L258.2 346.9Z" fill="#e992a5" stroke="#e992a5"></path><path d="M553.1 436.7L587.1 423.4L569.4 402.2Z" fill="#f3929b" stroke="#f3929b"></path><path d="M487.1 489.5L557.7 441.4L553.1 436.7Z" fill="#de93ad" stroke="#de93ad"></path><path d="M250.8 462.5L325.2 434.7L312.2 417.4Z" fill="#9b99aa" stroke="#9b99aa"></path><path d="M444.9 572.7L469.7 519.5L432.3 477.5Z" fill="#de93ad" stroke="#de93ad"></path><path d="M457.7 89.3L407.3 107.2L483.3 156.8Z" fill="#fa938f" stroke="#fa938f"></path><path d="M483.3 156.8L407.3 107.2L416.7 175.6Z" fill="#fa938f" stroke="#fa938f"></path><path d="M270.2 145.5L243.8 188.5L287.8 177.8Z" fill="#b798b7" stroke="#b798b7"></path><path d="M230.5 194.8L273.2 246.8L282.6 228.6Z" fill="#ac99b5" stroke="#ac99b5"></path><path d="M229.1 344.2L201.1 418.7L245.5 420.2Z" fill="#d195b3" stroke="#d195b3"></path><path d="M270.2 145.5L333.9 182.8L360.9 136.3Z" fill="#e992a5" stroke="#e992a5"></path><path d="M287.8 177.8L243.8 188.5L282.6 228.6Z" fill="#ff9681" stroke="#ff9681"></path><path d="M604.1 218.5L567.4 180.5L545.8 224.9Z" fill="#d195b3" stroke="#d195b3"></path><path d="M550.8 180.3L546.1 144.6L515.3 179.3Z" fill="#fa938f" stroke="#fa938f"></path><path d="M626.4 299.8L507.3 356.4L550.4 396.1Z" fill="#de93ad" stroke="#de93ad"></path><path d="M557.7 441.4L587.1 423.4L553.1 436.7Z" fill="#f3929b" stroke="#f3929b"></path><path d="M635.5 349.2L626.4 299.8L550.4 396.1Z" fill="#ff9681" stroke="#ff9681"></path><path d="M597.2 438.2L587.1 423.4L557.7 441.4Z" fill="#ac99b5" stroke="#ac99b5"></path><path d="M223.1 146.5L230.5 194.8L243.8 188.5Z" fill="#de93ad" stroke="#de93ad"></path><path d="M243.8 188.5L230.5 194.8L282.6 228.6Z" fill="#e992a5" stroke="#e992a5"></path><path d="M587.1 423.4L595.8 412.2L569.4 402.2Z" fill="#c497b6" stroke="#c497b6"></path><path d="M486.3 513.7L486.7 509.7L469.7 519.5Z" fill="#a299b0" stroke="#a299b0"></path><path d="M487.1 489.5L546.8 513.8L557.7 441.4Z" fill="#a299b0" stroke="#a299b0"></path><path d="M334.6 89.5L270.2 145.5L360.9 136.3Z" fill="#ff9681" stroke="#ff9681"></path><path d="M610.1 265.8L610.1 234.9L545.8 224.9Z" fill="#c497b6" stroke="#c497b6"></path><path d="M597.8 152.5L546.1 144.6L567.4 180.5Z" fill="#ac99b5" stroke="#ac99b5"></path><path d="M567.4 180.5L546.1 144.6L550.8 180.3Z" fill="#f3929b" stroke="#f3929b"></path><path d="M610.1 234.9L604.1 218.5L545.8 224.9Z" fill="#de93ad" stroke="#de93ad"></path><path d="M469.7 519.5L487.1 489.5L432.3 477.5Z" fill="#e992a5" stroke="#e992a5"></path><path d="M486.7 509.7L546.8 513.8L487.1 489.5Z" fill="#c497b6" stroke="#c497b6"></path><path d="M351.3 527.8L407.6 449.5L321.8 477.7Z" fill="#f3929b" stroke="#f3929b"></path><path d="M245.5 420.2L250.8 462.5L312.2 417.4Z" fill="#ff9681" stroke="#ff9681"></path><path d="M201.1 418.7L250.8 462.5L245.5 420.2Z" fill="#ff9681" stroke="#ff9681"></path><path d="M635.5 349.2L550.4 396.1L569.4 402.2Z" fill="#d195b3" stroke="#d195b3"></path><path d="M610.1 265.8L692.5 246.6L610.1 234.9Z" fill="#b798b7" stroke="#b798b7"></path><path d="M626.4 299.8L628.8 288.8L610.1 265.8Z" fill="#fa938f" stroke="#fa938f"></path><path d="M298.8 525.8L351.3 527.8L304.6 486.4Z" fill="#ff9681" stroke="#ff9681"></path><path d="M304.6 486.4L351.3 527.8L321.8 477.7Z" fill="#c497b6" stroke="#c497b6"></path><path d="M330.2 46.2L353.9 91.5L398.6 0Z" fill="#de93ad" stroke="#de93ad"></path><path d="M407.3 107.2L353.9 91.5L360.9 136.3Z" fill="#b798b7" stroke="#b798b7"></path><path d="M506.7 102.2L493.7 101.5L483.3 156.8Z" fill="#fa938f" stroke="#fa938f"></path><path d="M493.7 101.5L457.7 89.3L483.3 156.8Z" fill="#c497b6" stroke="#c497b6"></path><path d="M617.8 458.4L597.2 438.2L557.7 441.4Z" fill="#ff9681" stroke="#ff9681"></path><path d="M587.1 423.4L597.2 438.2L595.8 412.2Z" fill="#ff9681" stroke="#ff9681"></path><path d="M595.8 412.2L635.5 349.2L569.4 402.2Z" fill="#a299b0" stroke="#a299b0"></path><path d="M626.4 299.8L657.5 293.9L628.8 288.8Z" fill="#e992a5" stroke="#e992a5"></path><path d="M648.4 409.4L635.5 349.2L595.8 412.2Z" fill="#ac99b5" stroke="#ac99b5"></path><path d="M546.1 144.6L506.7 102.2L483.3 156.8Z" fill="#d195b3" stroke="#d195b3"></path><path d="M493.7 101.5L469.3 61.5L457.7 89.3Z" fill="#c497b6" stroke="#c497b6"></path><path d="M172.5 299.9L175.8 322.9L206.1 277.1Z" fill="#a299b0" stroke="#a299b0"></path><path d="M206.1 277.1L175.8 322.9L237.5 337.1Z" fill="#de93ad" stroke="#de93ad"></path><path d="M175.8 322.9L201.1 418.7L229.1 344.2Z" fill="#d195b3" stroke="#d195b3"></path><path d="M321.8 53.2L334.6 89.5L330.2 46.2Z" fill="#f3929b" stroke="#f3929b"></path><path d="M353.9 91.5L334.6 89.5L360.9 136.3Z" fill="#ff9681" stroke="#ff9681"></path><path d="M173.7 220.8L172.5 299.9L206.1 277.1Z" fill="#e992a5" stroke="#e992a5"></path><path d="M228.2 480.5L298.8 525.8L250.8 462.5Z" fill="#a299b0" stroke="#a299b0"></path><path d="M250.8 462.5L298.8 525.8L304.6 486.4Z" fill="#c497b6" stroke="#c497b6"></path><path d="M512.4 568.8L546.8 513.8L486.3 513.7Z" fill="#de93ad" stroke="#de93ad"></path><path d="M486.3 513.7L546.8 513.8L486.7 509.7Z" fill="#ac99b5" stroke="#ac99b5"></path><path d="M201.1 418.7L228.2 480.5L250.8 462.5Z" fill="#ac99b5" stroke="#ac99b5"></path><path d="M604.1 218.5L597.8 152.5L567.4 180.5Z" fill="#de93ad" stroke="#de93ad"></path><path d="M546.1 144.6L605.2 102.6L506.7 102.2Z" fill="#de93ad" stroke="#de93ad"></path><path d="M613.4 152.3L597.8 152.5L604.1 218.5Z" fill="#e992a5" stroke="#e992a5"></path><path d="M637.8 202.6L604.1 218.5L610.1 234.9Z" fill="#c497b6" stroke="#c497b6"></path><path d="M224.1 102.6L223.1 146.5L270.2 145.5Z" fill="#9b99aa" stroke="#9b99aa"></path><path d="M270.2 145.5L223.1 146.5L243.8 188.5Z" fill="#f3929b" stroke="#f3929b"></path><path d="M230.5 194.8L173.7 220.8L206.1 277.1Z" fill="#a299b0" stroke="#a299b0"></path><path d="M660.8 325.1L657.5 293.9L626.4 299.8Z" fill="#ac99b5" stroke="#ac99b5"></path><path d="M628.8 288.8L657.5 293.9L610.1 265.8Z" fill="#de93ad" stroke="#de93ad"></path><path d="M160.8 203.6L173.7 220.8L230.5 194.8Z" fill="#a299b0" stroke="#a299b0"></path><path d="M635.5 349.2L660.8 325.1L626.4 299.8Z" fill="#ac99b5" stroke="#ac99b5"></path><path d="M678.2 346.4L660.8 325.1L635.5 349.2Z" fill="#de93ad" stroke="#de93ad"></path><path d="M692.5 246.6L637.8 202.6L610.1 234.9Z" fill="#d195b3" stroke="#d195b3"></path><path d="M546.8 513.8L617.8 458.4L557.7 441.4Z" fill="#ac99b5" stroke="#ac99b5"></path><path d="M597.2 438.2L648.4 409.4L595.8 412.2Z" fill="#b798b7" stroke="#b798b7"></path><path d="M613.4 152.3L605.1 146.3L597.8 152.5Z" fill="#e992a5" stroke="#e992a5"></path><path d="M597.8 152.5L605.2 102.6L546.1 144.6Z" fill="#9b99aa" stroke="#9b99aa"></path><path d="M506.7 102.2L469.3 61.5L493.7 101.5Z" fill="#e992a5" stroke="#e992a5"></path><path d="M457.7 89.3L469.3 61.5L407.3 107.2Z" fill="#e992a5" stroke="#e992a5"></path><path d="M480.4 0L469.3 61.5L510.7 0Z" fill="#b798b7" stroke="#b798b7"></path><path d="M649.2 445.7L648.4 409.4L597.2 438.2Z" fill="#ac99b5" stroke="#ac99b5"></path><path d="M637.8 202.6L613.4 152.3L604.1 218.5Z" fill="#fa938f" stroke="#fa938f"></path><path d="M381.3 600L444.9 572.7L351.3 527.8Z" fill="#d195b3" stroke="#d195b3"></path><path d="M351.3 527.8L444.9 572.7L432.3 477.5Z" fill="#e992a5" stroke="#e992a5"></path><path d="M469.7 519.5L512.4 568.8L486.3 513.7Z" fill="#ac99b5" stroke="#ac99b5"></path><path d="M175.8 322.9L166.8 421.4L201.1 418.7Z" fill="#f3929b" stroke="#f3929b"></path><path d="M201.1 418.7L179.8 450.2L228.2 480.5Z" fill="#de93ad" stroke="#de93ad"></path><path d="M115.7 357.1L166.8 421.4L175.8 322.9Z" fill="#ff9681" stroke="#ff9681"></path><path d="M113.7 314.2L175.8 322.9L172.5 299.9Z" fill="#e992a5" stroke="#e992a5"></path><path d="M629.5 555.7L627.5 462.4L617.8 458.4Z" fill="#e992a5" stroke="#e992a5"></path><path d="M617.8 458.4L649.2 445.7L597.2 438.2Z" fill="#de93ad" stroke="#de93ad"></path><path d="M166.8 421.4L179.8 450.2L201.1 418.7Z" fill="#9b99aa" stroke="#9b99aa"></path><path d="M228.2 480.5L203.5 499.4L298.8 525.8Z" fill="#e992a5" stroke="#e992a5"></path><path d="M188.5 143.6L160.8 203.6L230.5 194.8Z" fill="#b798b7" stroke="#b798b7"></path><path d="M173.7 220.8L113.7 314.2L172.5 299.9Z" fill="#fa938f" stroke="#fa938f"></path><path d="M330.2 46.2L334.6 89.5L353.9 91.5Z" fill="#a299b0" stroke="#a299b0"></path><path d="M230.8 93.3L224.1 102.6L270.2 145.5Z" fill="#a299b0" stroke="#a299b0"></path><path d="M223.1 146.5L188.5 143.6L230.5 194.8Z" fill="#e992a5" stroke="#e992a5"></path><path d="M660.8 325.1L688.9 322.9L657.5 293.9Z" fill="#ff9681" stroke="#ff9681"></path><path d="M657.5 293.9L692.5 246.6L610.1 265.8Z" fill="#e992a5" stroke="#e992a5"></path><path d="M648.4 409.4L678.2 346.4L635.5 349.2Z" fill="#fa938f" stroke="#fa938f"></path><path d="M668.2 410.5L678.2 346.4L648.4 409.4Z" fill="#a299b0" stroke="#a299b0"></path><path d="M691.2 169.3L615.4 131.2L613.4 152.3Z" fill="#fa938f" stroke="#fa938f"></path><path d="M613.4 152.3L615.4 131.2L605.1 146.3Z" fill="#ac99b5" stroke="#ac99b5"></path><path d="M605.1 146.3L605.2 102.6L597.8 152.5Z" fill="#c497b6" stroke="#c497b6"></path><path d="M627.5 462.4L649.2 445.7L617.8 458.4Z" fill="#ff9681" stroke="#ff9681"></path><path d="M224.1 102.6L188.5 143.6L223.1 146.5Z" fill="#d195b3" stroke="#d195b3"></path><path d="M398.6 0L353.9 91.5L407.3 107.2Z" fill="#e992a5" stroke="#e992a5"></path><path d="M230.8 93.3L270.2 145.5L334.6 89.5Z" fill="#ac99b5" stroke="#ac99b5"></path><path d="M179.8 450.2L203.5 499.4L228.2 480.5Z" fill="#de93ad" stroke="#de93ad"></path><path d="M348.2 602.8L360.6 595.7L351.3 527.8Z" fill="#ac99b5" stroke="#ac99b5"></path><path d="M444.9 572.7L512.4 568.8L469.7 519.5Z" fill="#a299b0" stroke="#a299b0"></path><path d="M546.8 513.8L629.5 555.7L617.8 458.4Z" fill="#de93ad" stroke="#de93ad"></path><path d="M701.2 489.8L698.8 457.5L649.2 445.7Z" fill="#a299b0" stroke="#a299b0"></path><path d="M311.9 48.2L334.6 89.5L321.8 53.2Z" fill="#e992a5" stroke="#e992a5"></path><path d="M649.2 445.7L668.2 410.5L648.4 409.4Z" fill="#f3929b" stroke="#f3929b"></path><path d="M330.2 46.2L311.9 48.2L321.8 53.2Z" fill="#de93ad" stroke="#de93ad"></path><path d="M311.9 48.2L230.8 93.3L334.6 89.5Z" fill="#9b99aa" stroke="#9b99aa"></path><path d="M224.1 102.6L223.5 93.3L188.5 143.6Z" fill="#ac99b5" stroke="#ac99b5"></path><path d="M713.2 365.9L688.9 322.9L678.2 346.4Z" fill="#e992a5" stroke="#e992a5"></path><path d="M678.2 346.4L688.9 322.9L660.8 325.1Z" fill="#de93ad" stroke="#de93ad"></path><path d="M637.8 202.6L682.2 180.8L613.4 152.3Z" fill="#ac99b5" stroke="#ac99b5"></path><path d="M512.4 568.8L544.1 559.8L546.8 513.8Z" fill="#f3929b" stroke="#f3929b"></path><path d="M222.2 55.3L223.5 93.3L230.8 93.3Z" fill="#a299b0" stroke="#a299b0"></path><path d="M230.8 93.3L223.5 93.3L224.1 102.6Z" fill="#f3929b" stroke="#f3929b"></path><path d="M610.2 88.5L605.2 102.6L615.4 131.2Z" fill="#a299b0" stroke="#a299b0"></path><path d="M615.4 131.2L605.2 102.6L605.1 146.3Z" fill="#f3929b" stroke="#f3929b"></path><path d="M348.2 602.8L351.3 527.8L298.8 525.8Z" fill="#a299b0" stroke="#a299b0"></path><path d="M506.7 600L531.4 572.7L512.4 568.8Z" fill="#f3929b" stroke="#f3929b"></path><path d="M485.1 600L512.4 568.8L444.9 572.7Z" fill="#de93ad" stroke="#de93ad"></path><path d="M512.4 568.8L531.4 572.7L544.1 559.8Z" fill="#9b99aa" stroke="#9b99aa"></path><path d="M360.6 595.7L381.3 600L351.3 527.8Z" fill="#b798b7" stroke="#b798b7"></path><path d="M381.3 600L441.9 600L444.9 572.7Z" fill="#de93ad" stroke="#de93ad"></path><path d="M688.9 322.9L692.5 246.6L657.5 293.9Z" fill="#e992a5" stroke="#e992a5"></path><path d="M108.1 196.9L113.7 314.2L173.7 220.8Z" fill="#ac99b5" stroke="#ac99b5"></path><path d="M117.1 429.4L155.7 493.4L179.8 450.2Z" fill="#f3929b" stroke="#f3929b"></path><path d="M179.8 450.2L155.7 493.4L203.5 499.4Z" fill="#ff9681" stroke="#ff9681"></path><path d="M113.7 314.2L115.7 357.1L175.8 322.9Z" fill="#ac99b5" stroke="#ac99b5"></path><path d="M360.6 595.7L348.2 602.8L381.3 600Z" fill="#c497b6" stroke="#c497b6"></path><path d="M381.3 600L460.7 639.8L441.9 600Z" fill="#fa938f" stroke="#fa938f"></path><path d="M292.8 600L348.2 602.8L298.8 525.8Z" fill="#c497b6" stroke="#c497b6"></path><path d="M441.9 600L485.1 600L444.9 572.7Z" fill="#f3929b" stroke="#f3929b"></path><path d="M460.7 639.8L485.1 600L441.9 600Z" fill="#de93ad" stroke="#de93ad"></path><path d="M704.5 97.5L610.2 88.5L615.4 131.2Z" fill="#d195b3" stroke="#d195b3"></path><path d="M605.2 102.6L610.2 88.5L506.7 102.2Z" fill="#c497b6" stroke="#c497b6"></path><path d="M699.5 210.8L682.2 180.8L637.8 202.6Z" fill="#d195b3" stroke="#d195b3"></path><path d="M141.1 155.8L134.7 176.6L160.8 203.6Z" fill="#d195b3" stroke="#d195b3"></path><path d="M160.8 203.6L108.1 196.9L173.7 220.8Z" fill="#9b99aa" stroke="#9b99aa"></path><path d="M141.1 155.8L160.8 203.6L188.5 143.6Z" fill="#a299b0" stroke="#a299b0"></path><path d="M460.7 639.8L506.7 600L485.1 600Z" fill="#fa938f" stroke="#fa938f"></path><path d="M485.1 600L506.7 600L512.4 568.8Z" fill="#d195b3" stroke="#d195b3"></path><path d="M629.5 555.7L546.8 513.8L544.1 559.8Z" fill="#ac99b5" stroke="#ac99b5"></path><path d="M729.3 211.6L699.5 210.8L692.5 246.6Z" fill="#ff9681" stroke="#ff9681"></path><path d="M692.5 246.6L699.5 210.8L637.8 202.6Z" fill="#de93ad" stroke="#de93ad"></path><path d="M138.7 132.3L141.1 155.8L188.5 143.6Z" fill="#a299b0" stroke="#a299b0"></path><path d="M203.5 499.4L256.6 581.8L298.8 525.8Z" fill="#9b99aa" stroke="#9b99aa"></path><path d="M698.8 457.5L713.2 365.9L668.2 410.5Z" fill="#c497b6" stroke="#c497b6"></path><path d="M668.2 410.5L713.2 365.9L678.2 346.4Z" fill="#c497b6" stroke="#c497b6"></path><path d="M688.9 322.9L744.3 265.1L692.5 246.6Z" fill="#f3929b" stroke="#f3929b"></path><path d="M286.6 600L292.8 600L298.8 525.8Z" fill="#f3929b" stroke="#f3929b"></path><path d="M117.1 429.4L179.8 450.2L166.8 421.4Z" fill="#de93ad" stroke="#de93ad"></path><path d="M203.5 499.4L181.1 535.5L256.6 581.8Z" fill="#ac99b5" stroke="#ac99b5"></path><path d="M434.1 0L398.9 0L469.3 61.5Z" fill="#ff9681" stroke="#ff9681"></path><path d="M469.3 61.5L398.9 0L407.3 107.2Z" fill="#d195b3" stroke="#d195b3"></path><path d="M330.2 46.2L255.6 -32.8L311.9 48.2Z" fill="#d195b3" stroke="#d195b3"></path><path d="M311.9 48.2L222.2 55.3L230.8 93.3Z" fill="#d195b3" stroke="#d195b3"></path><path d="M398.9 0L398.6 0L407.3 107.2Z" fill="#9b99aa" stroke="#9b99aa"></path><path d="M459.3 0L434.1 0L469.3 61.5Z" fill="#b798b7" stroke="#b798b7"></path><path d="M256.6 581.8L286.6 600L298.8 525.8Z" fill="#a299b0" stroke="#a299b0"></path><path d="M345.9 639.8L381.3 600L348.2 602.8Z" fill="#b798b7" stroke="#b798b7"></path><path d="M141.1 155.8L124.4 178.3L134.7 176.6Z" fill="#de93ad" stroke="#de93ad"></path><path d="M134.7 176.6L108.1 196.9L160.8 203.6Z" fill="#9b99aa" stroke="#9b99aa"></path><path d="M102.5 399.5L117.1 429.4L166.8 421.4Z" fill="#ff9681" stroke="#ff9681"></path><path d="M102.5 399.5L166.8 421.4L115.7 357.1Z" fill="#d195b3" stroke="#d195b3"></path><path d="M480.4 0L459.3 0L469.3 61.5Z" fill="#fa938f" stroke="#fa938f"></path><path d="M219.2 0L222.2 55.3L311.9 48.2Z" fill="#ff9681" stroke="#ff9681"></path><path d="M127.5 76.5L138.7 132.3L188.5 143.6Z" fill="#fa938f" stroke="#fa938f"></path><path d="M699.5 210.8L691.2 169.3L682.2 180.8Z" fill="#fa938f" stroke="#fa938f"></path><path d="M682.2 180.8L691.2 169.3L613.4 152.3Z" fill="#c497b6" stroke="#c497b6"></path><path d="M89.4 409.4L115.7 357.1L0 381.2Z" fill="#ac99b5" stroke="#ac99b5"></path><path d="M89.4 409.4L102.5 399.5L115.7 357.1Z" fill="#e992a5" stroke="#e992a5"></path><path d="M155.7 493.4L181.1 535.5L203.5 499.4Z" fill="#e992a5" stroke="#e992a5"></path><path d="M150.1 530.8L181.1 535.5L155.7 493.4Z" fill="#9b99aa" stroke="#9b99aa"></path><path d="M510.7 0L469.3 61.5L506.7 102.2Z" fill="#b798b7" stroke="#b798b7"></path><path d="M103.7 187.5L108.1 196.9L124.4 178.3Z" fill="#de93ad" stroke="#de93ad"></path><path d="M124.4 178.3L108.1 196.9L134.7 176.6Z" fill="#d195b3" stroke="#d195b3"></path><path d="M122.5 84.2L138.7 132.3L127.5 76.5Z" fill="#b798b7" stroke="#b798b7"></path><path d="M141.1 155.8L109.1 116.3L124.4 178.3Z" fill="#de93ad" stroke="#de93ad"></path><path d="M649.2 445.7L698.8 457.5L668.2 410.5Z" fill="#b798b7" stroke="#b798b7"></path><path d="M701.2 489.8L649.2 445.7L627.5 462.4Z" fill="#fa938f" stroke="#fa938f"></path><path d="M629.5 555.7L544.1 559.8L622.5 600Z" fill="#ff9681" stroke="#ff9681"></path><path d="M610.2 88.5L510.7 0L506.7 102.2Z" fill="#f3929b" stroke="#f3929b"></path><path d="M743.2 333.1L735.9 327.1L713.2 365.9Z" fill="#fa938f" stroke="#fa938f"></path><path d="M713.2 365.9L735.9 327.1L688.9 322.9Z" fill="#f3929b" stroke="#f3929b"></path><path d="M699.5 210.8L729.3 211.6L691.2 169.3Z" fill="#ac99b5" stroke="#ac99b5"></path><path d="M109.1 116.3L103.7 187.5L124.4 178.3Z" fill="#de93ad" stroke="#de93ad"></path><path d="M108.1 196.9L57.7 267.9L113.7 314.2Z" fill="#ff9681" stroke="#ff9681"></path><path d="M622.5 600L544.1 559.8L531.4 572.7Z" fill="#c497b6" stroke="#c497b6"></path><path d="M345.9 639.8L348.2 602.8L292.8 600Z" fill="#de93ad" stroke="#de93ad"></path><path d="M345.9 639.8L460.7 639.8L381.3 600Z" fill="#de93ad" stroke="#de93ad"></path><path d="M506.7 600L622.5 600L531.4 572.7Z" fill="#9b99aa" stroke="#9b99aa"></path><path d="M102.5 399.5L89.4 409.4L117.1 429.4Z" fill="#de93ad" stroke="#de93ad"></path><path d="M123.4 522.7L150.1 530.8L155.7 493.4Z" fill="#e992a5" stroke="#e992a5"></path><path d="M0 381.2L115.7 357.1L113.7 314.2Z" fill="#ff9681" stroke="#ff9681"></path><path d="M222.2 600L345.9 639.8L286.6 600Z" fill="#c497b6" stroke="#c497b6"></path><path d="M286.6 600L345.9 639.8L292.8 600Z" fill="#d195b3" stroke="#d195b3"></path><path d="M222.2 600L286.6 600L256.6 581.8Z" fill="#c497b6" stroke="#c497b6"></path><path d="M743.5 364.1L743.2 333.1L713.2 365.9Z" fill="#c497b6" stroke="#c497b6"></path><path d="M744.3 265.1L729.3 211.6L692.5 246.6Z" fill="#ac99b5" stroke="#ac99b5"></path><path d="M744.3 265.1L688.9 322.9L735.9 327.1Z" fill="#f3929b" stroke="#f3929b"></path><path d="M123.4 522.7L155.7 493.4L117.1 429.4Z" fill="#d195b3" stroke="#d195b3"></path><path d="M181.1 535.5L222.2 600L256.6 581.8Z" fill="#9b99aa" stroke="#9b99aa"></path><path d="M743.2 333.1L744.3 265.1L735.9 327.1Z" fill="#d195b3" stroke="#d195b3"></path><path d="M698.8 457.5L743.5 364.1L713.2 365.9Z" fill="#f3929b" stroke="#f3929b"></path><path d="M799.3 207.5L769.6 199.9L744.3 265.1Z" fill="#c497b6" stroke="#c497b6"></path><path d="M744.3 265.1L733.3 211.8L729.3 211.6Z" fill="#d195b3" stroke="#d195b3"></path><path d="M729.3 211.6L770.6 155.8L691.2 169.3Z" fill="#9b99aa" stroke="#9b99aa"></path><path d="M146.5 600L222.2 600L181.1 535.5Z" fill="#b798b7" stroke="#b798b7"></path><path d="M629.5 555.7L701.2 489.8L627.5 462.4Z" fill="#e992a5" stroke="#e992a5"></path><path d="M698.8 457.5L807.6 470.4L743.5 364.1Z" fill="#e992a5" stroke="#e992a5"></path><path d="M103.7 187.5L57.7 267.9L108.1 196.9Z" fill="#de93ad" stroke="#de93ad"></path><path d="M11.7 500.8L123.4 522.7L117.1 429.4Z" fill="#a299b0" stroke="#a299b0"></path><path d="M150.1 530.8L134.5 558.7L181.1 535.5Z" fill="#c497b6" stroke="#c497b6"></path><path d="M138.7 132.3L109.1 116.3L141.1 155.8Z" fill="#f3929b" stroke="#f3929b"></path><path d="M0 283.9L6.4 285.2L0 264.1Z" fill="#d195b3" stroke="#d195b3"></path><path d="M122.5 84.2L109.1 116.3L138.7 132.3Z" fill="#e992a5" stroke="#e992a5"></path><path d="M460.7 639.8L622.5 600L506.7 600Z" fill="#d195b3" stroke="#d195b3"></path><path d="M629.5 555.7L702.8 527.7L701.2 489.8Z" fill="#f3929b" stroke="#f3929b"></path><path d="M255.6 -32.8L219.2 0L311.9 48.2Z" fill="#c497b6" stroke="#c497b6"></path><path d="M127.5 76.5L188.5 143.6L223.5 93.3Z" fill="#d195b3" stroke="#d195b3"></path><path d="M704.5 97.5L636.8 28.2L610.2 88.5Z" fill="#ff9681" stroke="#ff9681"></path><path d="M610.2 88.5L609.2 0L510.7 0Z" fill="#a299b0" stroke="#a299b0"></path><path d="M704.5 97.5L615.4 131.2L691.2 169.3Z" fill="#ac99b5" stroke="#ac99b5"></path><path d="M127.5 76.5L223.5 93.3L222.2 55.3Z" fill="#ac99b5" stroke="#ac99b5"></path><path d="M770.6 155.8L704.5 97.5L691.2 169.3Z" fill="#e992a5" stroke="#e992a5"></path><path d="M678.8 600L702.8 527.7L629.5 555.7Z" fill="#c497b6" stroke="#c497b6"></path><path d="M701.2 489.8L753.9 515.7L698.8 457.5Z" fill="#f3929b" stroke="#f3929b"></path><path d="M187.8 0L127.5 76.5L222.2 55.3Z" fill="#a299b0" stroke="#a299b0"></path><path d="M219.2 0L214.5 0L222.2 55.3Z" fill="#f3929b" stroke="#f3929b"></path><path d="M460.7 639.8L634.4 600L622.5 600Z" fill="#a299b0" stroke="#a299b0"></path><path d="M622.5 600L634.4 600L629.5 555.7Z" fill="#e992a5" stroke="#e992a5"></path><path d="M113.5 561.8L128.7 549.5L123.4 522.7Z" fill="#9b99aa" stroke="#9b99aa"></path><path d="M123.4 522.7L128.7 549.5L150.1 530.8Z" fill="#d195b3" stroke="#d195b3"></path><path d="M128.7 549.5L134.5 558.7L150.1 530.8Z" fill="#b798b7" stroke="#b798b7"></path><path d="M636.8 28.2L609.2 0L610.2 88.5Z" fill="#d195b3" stroke="#d195b3"></path><path d="M609.2 0L548.1 -33.8L510.7 0Z" fill="#c497b6" stroke="#c497b6"></path><path d="M510.7 0L548.1 -33.8L480.4 0Z" fill="#a299b0" stroke="#a299b0"></path><path d="M480.4 0L548.1 -33.8L459.3 0Z" fill="#e992a5" stroke="#e992a5"></path><path d="M459.3 0L548.1 -33.8L434.1 0Z" fill="#de93ad" stroke="#de93ad"></path><path d="M434.1 0L548.1 -33.8L398.9 0Z" fill="#d195b3" stroke="#d195b3"></path><path d="M398.9 0L255.6 -32.8L398.6 0Z" fill="#d195b3" stroke="#d195b3"></path><path d="M398.6 0L255.6 -32.8L330.2 46.2Z" fill="#ac99b5" stroke="#ac99b5"></path><path d="M219.2 0L255.6 -32.8L214.5 0Z" fill="#c497b6" stroke="#c497b6"></path><path d="M548.1 -33.8L255.6 -32.8L398.9 0Z" fill="#f3929b" stroke="#f3929b"></path><path d="M744.3 265.1L769.6 199.9L733.3 211.8Z" fill="#ff9681" stroke="#ff9681"></path><path d="M733.3 211.8L770.6 155.8L729.3 211.6Z" fill="#a299b0" stroke="#a299b0"></path><path d="M810.6 293.2L744.3 265.1L743.2 333.1Z" fill="#e992a5" stroke="#e992a5"></path><path d="M113.5 561.8L137.7 579.7L134.5 558.7Z" fill="#9b99aa" stroke="#9b99aa"></path><path d="M134.5 558.7L137.7 579.7L181.1 535.5Z" fill="#a299b0" stroke="#a299b0"></path><path d="M222.2 600L146.5 600L345.9 639.8Z" fill="#c497b6" stroke="#c497b6"></path><path d="M255.6 -32.8L187.8 0L214.5 0Z" fill="#de93ad" stroke="#de93ad"></path><path d="M214.5 0L187.8 0L222.2 55.3Z" fill="#e992a5" stroke="#e992a5"></path><path d="M722.3 610.8L661.2 600L634.4 600Z" fill="#e992a5" stroke="#e992a5"></path><path d="M634.4 600L661.2 600L629.5 555.7Z" fill="#ac99b5" stroke="#ac99b5"></path><path d="M741.9 549.8L733.5 518.5L702.8 527.7Z" fill="#c497b6" stroke="#c497b6"></path><path d="M702.8 527.7L733.5 518.5L701.2 489.8Z" fill="#f3929b" stroke="#f3929b"></path><path d="M811.3 344.9L810.6 293.2L743.2 333.1Z" fill="#c497b6" stroke="#c497b6"></path><path d="M11.7 500.8L113.5 561.8L123.4 522.7Z" fill="#d195b3" stroke="#d195b3"></path><path d="M128.7 549.5L113.5 561.8L134.5 558.7Z" fill="#e992a5" stroke="#e992a5"></path><path d="M110.4 576.8L113.5 561.8L78.7 600Z" fill="#a299b0" stroke="#a299b0"></path><path d="M114.1 600L146.5 600L137.7 579.7Z" fill="#f3929b" stroke="#f3929b"></path><path d="M137.7 579.7L146.5 600L181.1 535.5Z" fill="#c497b6" stroke="#c497b6"></path><path d="M769.6 199.9L770.6 155.8L733.3 211.8Z" fill="#e992a5" stroke="#e992a5"></path><path d="M704.5 97.5L718.2 46.2L636.8 28.2Z" fill="#d195b3" stroke="#d195b3"></path><path d="M636.8 28.2L693.8 0L609.2 0Z" fill="#f3929b" stroke="#f3929b"></path><path d="M722.3 610.8L678.8 600L661.2 600Z" fill="#a299b0" stroke="#a299b0"></path><path d="M661.2 600L678.8 600L629.5 555.7Z" fill="#9b99aa" stroke="#9b99aa"></path><path d="M113.5 561.8L110.4 576.8L137.7 579.7Z" fill="#b798b7" stroke="#b798b7"></path><path d="M11.7 500.8L117.1 429.4L89.4 409.4Z" fill="#ff9681" stroke="#ff9681"></path><path d="M741.9 549.8L753.9 515.7L733.5 518.5Z" fill="#ac99b5" stroke="#ac99b5"></path><path d="M733.5 518.5L753.9 515.7L701.2 489.8Z" fill="#d195b3" stroke="#d195b3"></path><path d="M30.4 165.6L57.7 267.9L103.7 187.5Z" fill="#a299b0" stroke="#a299b0"></path><path d="M57.7 267.9L6.4 285.2L113.7 314.2Z" fill="#ff9681" stroke="#ff9681"></path><path d="M30.4 165.6L103.7 187.5L109.1 116.3Z" fill="#ac99b5" stroke="#ac99b5"></path><path d="M811.3 344.9L743.2 333.1L743.5 364.1Z" fill="#9b99aa" stroke="#9b99aa"></path><path d="M769.6 199.9L799.3 207.5L770.6 155.8Z" fill="#ac99b5" stroke="#ac99b5"></path><path d="M25.4 139.5L109.1 116.3L0 51.3Z" fill="#de93ad" stroke="#de93ad"></path><path d="M25.4 139.5L30.4 165.6L109.1 116.3Z" fill="#c497b6" stroke="#c497b6"></path><path d="M109.1 116.3L122.5 84.2L0 51.3Z" fill="#ac99b5" stroke="#ac99b5"></path><path d="M821.9 364.2L811.3 344.9L743.5 364.1Z" fill="#9b99aa" stroke="#9b99aa"></path><path d="M822.9 251.8L799.3 207.5L744.3 265.1Z" fill="#c497b6" stroke="#c497b6"></path><path d="M731.5 48.2L727.9 58.5L773.9 75.3Z" fill="#fa938f" stroke="#fa938f"></path><path d="M773.5 101.3L727.9 58.5L704.5 97.5Z" fill="#f3929b" stroke="#f3929b"></path><path d="M609.2 0L737.9 -22.8L548.1 -33.8Z" fill="#fa938f" stroke="#fa938f"></path><path d="M727.9 58.5L718.2 46.2L704.5 97.5Z" fill="#9b99aa" stroke="#9b99aa"></path><path d="M0 264.1L6.4 285.2L57.7 267.9Z" fill="#9b99aa" stroke="#9b99aa"></path><path d="M6.4 285.2L0 381.2L113.7 314.2Z" fill="#e992a5" stroke="#e992a5"></path><path d="M678.8 600L741.9 549.8L702.8 527.7Z" fill="#d195b3" stroke="#d195b3"></path><path d="M-0.6 223.9L0 264.1L57.7 267.9Z" fill="#c497b6" stroke="#c497b6"></path><path d="M78.7 600L114.1 600L110.4 576.8Z" fill="#ac99b5" stroke="#ac99b5"></path><path d="M110.4 576.8L114.1 600L137.7 579.7Z" fill="#f3929b" stroke="#f3929b"></path><path d="M146.5 600L114.1 600L345.9 639.8Z" fill="#c497b6" stroke="#c497b6"></path><path d="M741.9 549.8L762.6 522.5L753.9 515.7Z" fill="#ff9681" stroke="#ff9681"></path><path d="M807.6 470.4L821.9 364.2L743.5 364.1Z" fill="#c497b6" stroke="#c497b6"></path><path d="M-35.6 350.1L0 381.2L6.4 285.2Z" fill="#e992a5" stroke="#e992a5"></path><path d="M773.5 101.3L704.5 97.5L770.6 155.8Z" fill="#ac99b5" stroke="#ac99b5"></path><path d="M727.9 58.5L731.5 48.2L718.2 46.2Z" fill="#b798b7" stroke="#b798b7"></path><path d="M718.2 46.2L693.8 0L636.8 28.2Z" fill="#d195b3" stroke="#d195b3"></path><path d="M811.3 344.9L835.3 299.2L810.6 293.2Z" fill="#a299b0" stroke="#a299b0"></path><path d="M810.6 293.2L822.9 251.8L744.3 265.1Z" fill="#d195b3" stroke="#d195b3"></path><path d="M807.6 470.4L698.8 457.5L753.9 515.7Z" fill="#d195b3" stroke="#d195b3"></path><path d="M0 264.1L-35.6 350.1L0 283.9Z" fill="#ac99b5" stroke="#ac99b5"></path><path d="M0 283.9L-35.6 350.1L6.4 285.2Z" fill="#d195b3" stroke="#d195b3"></path><path d="M0 211.5L-0.6 223.9L57.7 267.9Z" fill="#f3929b" stroke="#f3929b"></path><path d="M824.9 253.6L822.9 251.8L810.6 293.2Z" fill="#fa938f" stroke="#fa938f"></path><path d="M826.6 161.5L773.5 101.3L770.6 155.8Z" fill="#a299b0" stroke="#a299b0"></path><path d="M96.1 12.2L122.5 84.2L127.5 76.5Z" fill="#ac99b5" stroke="#ac99b5"></path><path d="M30.4 165.6L0 211.5L57.7 267.9Z" fill="#ff9681" stroke="#ff9681"></path><path d="M0 197.6L0 211.5L30.4 165.6Z" fill="#ac99b5" stroke="#ac99b5"></path><path d="M835.3 299.2L824.9 253.6L810.6 293.2Z" fill="#b798b7" stroke="#b798b7"></path><path d="M900 221.5L826.6 161.5L799.3 207.5Z" fill="#fa938f" stroke="#fa938f"></path><path d="M773.9 75.3L773.5 101.3L844.6 108.2Z" fill="#ac99b5" stroke="#ac99b5"></path><path d="M699.5 0L718.2 46.2L720.3 0Z" fill="#a299b0" stroke="#a299b0"></path><path d="M699.5 0L693.8 0L718.2 46.2Z" fill="#ac99b5" stroke="#ac99b5"></path><path d="M0 141.8L0 197.6L30.4 165.6Z" fill="#ff9681" stroke="#ff9681"></path><path d="M0 211.5L-36.6 145.8L-0.6 223.9Z" fill="#a299b0" stroke="#a299b0"></path><path d="M863.3 380.5L829.9 358.4L821.9 364.2Z" fill="#fa938f" stroke="#fa938f"></path><path d="M821.9 364.2L829.9 358.4L811.3 344.9Z" fill="#de93ad" stroke="#de93ad"></path><path d="M-35.6 350.1L0 434.7L0 381.2Z" fill="#c497b6" stroke="#c497b6"></path><path d="M0 381.2L0 434.7L89.4 409.4Z" fill="#de93ad" stroke="#de93ad"></path><path d="M720.3 0L718.2 46.2L727.9 0Z" fill="#fa938f" stroke="#fa938f"></path><path d="M693.8 0L737.9 -22.8L609.2 0Z" fill="#b798b7" stroke="#b798b7"></path><path d="M829.9 358.4L835.3 299.2L811.3 344.9Z" fill="#c497b6" stroke="#c497b6"></path><path d="M-40.6 467.5L0 444.4L0 434.7Z" fill="#ac99b5" stroke="#ac99b5"></path><path d="M0 434.7L0 444.4L89.4 409.4Z" fill="#ff9681" stroke="#ff9681"></path><path d="M849.3 493.4L807.6 470.4L762.6 522.5Z" fill="#9b99aa" stroke="#9b99aa"></path><path d="M762.6 522.5L807.6 470.4L753.9 515.7Z" fill="#d195b3" stroke="#d195b3"></path><path d="M104.7 0L127.5 76.5L187.8 0Z" fill="#de93ad" stroke="#de93ad"></path><path d="M104.7 0L96.1 12.2L127.5 76.5Z" fill="#b798b7" stroke="#b798b7"></path><path d="M678.8 600L722.3 610.8L741.9 549.8Z" fill="#9b99aa" stroke="#9b99aa"></path><path d="M741.9 549.8L758.5 580.8L762.6 522.5Z" fill="#a299b0" stroke="#a299b0"></path><path d="M460.7 639.8L722.3 610.8L634.4 600Z" fill="#fa938f" stroke="#fa938f"></path><path d="M255.6 -32.8L104.7 0L187.8 0Z" fill="#ac99b5" stroke="#ac99b5"></path><path d="M-40.6 467.5L0 461.5L0 444.4Z" fill="#d195b3" stroke="#d195b3"></path><path d="M0 444.4L0 461.5L89.4 409.4Z" fill="#fa938f" stroke="#fa938f"></path><path d="M826.6 161.5L770.6 155.8L799.3 207.5Z" fill="#de93ad" stroke="#de93ad"></path><path d="M773.5 101.3L773.9 75.3L727.9 58.5Z" fill="#9b99aa" stroke="#9b99aa"></path><path d="M55.4 600L78.7 600L113.5 561.8Z" fill="#fa938f" stroke="#fa938f"></path><path d="M114.1 600L78.7 600L345.9 639.8Z" fill="#c497b6" stroke="#c497b6"></path><path d="M0 461.5L11.7 500.8L89.4 409.4Z" fill="#b798b7" stroke="#b798b7"></path><path d="M727.9 0L718.2 46.2L731.5 48.2Z" fill="#f3929b" stroke="#f3929b"></path><path d="M699.5 0L737.9 -22.8L693.8 0Z" fill="#c497b6" stroke="#c497b6"></path><path d="M0 51.3L0 141.8L25.4 139.5Z" fill="#a299b0" stroke="#a299b0"></path><path d="M25.4 139.5L0 141.8L30.4 165.6Z" fill="#d195b3" stroke="#d195b3"></path><path d="M-36.6 145.8L0 264.1L-0.6 223.9Z" fill="#de93ad" stroke="#de93ad"></path><path d="M0 51.3L122.5 84.2L12.4 31.2Z" fill="#9b99aa" stroke="#9b99aa"></path><path d="M722.3 610.8L758.5 580.8L741.9 549.8Z" fill="#c497b6" stroke="#c497b6"></path><path d="M844.6 108.2L826.6 161.5L895.6 135.6Z" fill="#a299b0" stroke="#a299b0"></path><path d="M900 221.5L799.3 207.5L822.9 251.8Z" fill="#9b99aa" stroke="#9b99aa"></path><path d="M-36.6 145.8L0 211.5L0 197.6Z" fill="#fa938f" stroke="#fa938f"></path><path d="M-36.6 145.8L-35.6 350.1L0 264.1Z" fill="#a299b0" stroke="#a299b0"></path><path d="M0 461.5L-40.6 467.5L11.7 500.8Z" fill="#a299b0" stroke="#a299b0"></path><path d="M764.3 22.3L731.5 48.2L773.9 75.3Z" fill="#e992a5" stroke="#e992a5"></path><path d="M764.3 22.3L727.9 0L731.5 48.2Z" fill="#ac99b5" stroke="#ac99b5"></path><path d="M720.3 0L737.9 -22.8L699.5 0Z" fill="#de93ad" stroke="#de93ad"></path><path d="M849.3 493.4L832.9 451.5L807.6 470.4Z" fill="#ac99b5" stroke="#ac99b5"></path><path d="M807.6 470.4L832.9 451.5L821.9 364.2Z" fill="#ff9681" stroke="#ff9681"></path><path d="M900 325.2L900 321.9L835.3 299.2Z" fill="#fa938f" stroke="#fa938f"></path><path d="M722.3 610.8L751.9 600L758.5 580.8Z" fill="#a299b0" stroke="#a299b0"></path><path d="M758.5 580.8L780.3 584.7L762.6 522.5Z" fill="#b798b7" stroke="#b798b7"></path><path d="M50.7 -19.8L80.4 0L104.7 0Z" fill="#c497b6" stroke="#c497b6"></path><path d="M104.7 0L80.4 0L96.1 12.2Z" fill="#9b99aa" stroke="#9b99aa"></path><path d="M50.7 -19.8L78.1 0L80.4 0Z" fill="#c497b6" stroke="#c497b6"></path><path d="M80.4 0L78.1 0L96.1 12.2Z" fill="#a299b0" stroke="#a299b0"></path><path d="M0 556.8L55.4 600L113.5 561.8Z" fill="#f3929b" stroke="#f3929b"></path><path d="M78.7 600L55.4 600L345.9 639.8Z" fill="#b798b7" stroke="#b798b7"></path><path d="M767.6 0L764.3 22.3L810.6 21.3Z" fill="#fa938f" stroke="#fa938f"></path><path d="M832.9 451.5L863.3 380.5L821.9 364.2Z" fill="#e992a5" stroke="#e992a5"></path><path d="M900 221.5L822.9 251.8L824.9 253.6Z" fill="#fa938f" stroke="#fa938f"></path><path d="M776.3 600L780.3 584.7L758.5 580.8Z" fill="#a299b0" stroke="#a299b0"></path><path d="M900 428.4L895.6 390.1L863.3 380.5Z" fill="#9b99aa" stroke="#9b99aa"></path><path d="M722.3 610.8L776.3 600L751.9 600Z" fill="#e992a5" stroke="#e992a5"></path><path d="M751.9 600L776.3 600L758.5 580.8Z" fill="#b798b7" stroke="#b798b7"></path><path d="M780.3 584.7L849.3 493.4L762.6 522.5Z" fill="#fa938f" stroke="#fa938f"></path><path d="M767.6 0L737.9 -22.8L727.9 0Z" fill="#c497b6" stroke="#c497b6"></path><path d="M727.9 0L737.9 -22.8L720.3 0Z" fill="#d195b3" stroke="#d195b3"></path><path d="M0 51.3L-36.6 145.8L0 141.8Z" fill="#fa938f" stroke="#fa938f"></path><path d="M0 141.8L-36.6 145.8L0 197.6Z" fill="#d195b3" stroke="#d195b3"></path><path d="M-35.6 350.1L-40.6 467.5L0 434.7Z" fill="#fa938f" stroke="#fa938f"></path><path d="M11.7 500.8L0 556.8L113.5 561.8Z" fill="#ac99b5" stroke="#ac99b5"></path><path d="M-36.6 145.8L-40.6 467.5L-35.6 350.1Z" fill="#e992a5" stroke="#e992a5"></path><path d="M810.6 21.3L764.3 22.3L773.9 75.3Z" fill="#ff9681" stroke="#ff9681"></path><path d="M764.3 22.3L767.6 0L727.9 0Z" fill="#de93ad" stroke="#de93ad"></path><path d="M-40.6 467.5L0 556.8L11.7 500.8Z" fill="#d195b3" stroke="#d195b3"></path><path d="M863.6 574.8L849.3 493.4L780.3 584.7Z" fill="#c497b6" stroke="#c497b6"></path><path d="M900 286.8L824.9 253.6L835.3 299.2Z" fill="#b798b7" stroke="#b798b7"></path><path d="M826.6 161.5L844.6 108.2L773.5 101.3Z" fill="#e992a5" stroke="#e992a5"></path><path d="M12.4 31.2L122.5 84.2L96.1 12.2Z" fill="#9b99aa" stroke="#9b99aa"></path><path d="M78.1 0L12.4 31.2L96.1 12.2Z" fill="#b798b7" stroke="#b798b7"></path><path d="M255.6 -32.8L50.7 -19.8L104.7 0Z" fill="#de93ad" stroke="#de93ad"></path><path d="M78.1 0L50.7 -19.8L12.4 31.2Z" fill="#9b99aa" stroke="#9b99aa"></path><path d="M900 325.2L829.9 358.4L863.3 380.5Z" fill="#ff9681" stroke="#ff9681"></path><path d="M900 325.2L835.3 299.2L829.9 358.4Z" fill="#b798b7" stroke="#b798b7"></path><path d="M900 370.1L900 325.2L863.3 380.5Z" fill="#a299b0" stroke="#a299b0"></path><path d="M900 321.9L900 286.8L835.3 299.2Z" fill="#e992a5" stroke="#e992a5"></path><path d="M900 428.4L863.3 380.5L832.9 451.5Z" fill="#9b99aa" stroke="#9b99aa"></path><path d="M895.6 390.1L900 370.1L863.3 380.5Z" fill="#a299b0" stroke="#a299b0"></path><path d="M844.6 108.2L810.6 21.3L773.9 75.3Z" fill="#ac99b5" stroke="#ac99b5"></path><path d="M767.6 0L900 0L737.9 -22.8Z" fill="#ac99b5" stroke="#ac99b5"></path><path d="M-40.6 467.5L0 600L0 556.8Z" fill="#f3929b" stroke="#f3929b"></path><path d="M0 556.8L0 600L55.4 600Z" fill="#ac99b5" stroke="#ac99b5"></path><path d="M55.4 600L0 600L345.9 639.8Z" fill="#de93ad" stroke="#de93ad"></path><path d="M900 286.8L900 221.5L824.9 253.6Z" fill="#fa938f" stroke="#fa938f"></path><path d="M844.6 108.2L886.3 14.2L810.6 21.3Z" fill="#a299b0" stroke="#a299b0"></path><path d="M900 455.7L900 428.4L832.9 451.5Z" fill="#a299b0" stroke="#a299b0"></path><path d="M895.6 390.1L900 428.4L900 370.1Z" fill="#ff9681" stroke="#ff9681"></path><path d="M900 455.7L832.9 451.5L849.3 493.4Z" fill="#fa938f" stroke="#fa938f"></path><path d="M900 547.5L900 455.7L849.3 493.4Z" fill="#e992a5" stroke="#e992a5"></path><path d="M50.7 -19.8L0 0L12.4 31.2Z" fill="#ff9681" stroke="#ff9681"></path><path d="M12.4 31.2L0 0L0 51.3Z" fill="#ff9681" stroke="#ff9681"></path><path d="M0 51.3L0 0L-36.6 145.8Z" fill="#de93ad" stroke="#de93ad"></path><path d="M900 221.5L900 165.6L826.6 161.5Z" fill="#de93ad" stroke="#de93ad"></path><path d="M900 165.6L895.6 135.6L826.6 161.5Z" fill="#ac99b5" stroke="#ac99b5"></path><path d="M776.3 600L863.6 574.8L780.3 584.7Z" fill="#c497b6" stroke="#c497b6"></path><path d="M900 165.6L900 120.2L895.6 135.6Z" fill="#9b99aa" stroke="#9b99aa"></path><path d="M895.6 135.6L900 120.2L844.6 108.2Z" fill="#b798b7" stroke="#b798b7"></path><path d="M900 120.2L900 94.3L844.6 108.2Z" fill="#d195b3" stroke="#d195b3"></path><path d="M50.7 -19.8L0 -43.8L0 0Z" fill="#9b99aa" stroke="#9b99aa"></path><path d="M0 0L0 -43.8L-36.6 145.8Z" fill="#c497b6" stroke="#c497b6"></path><path d="M255.6 -32.8L0 -43.8L50.7 -19.8Z" fill="#b798b7" stroke="#b798b7"></path><path d="M548.1 -33.8L0 -43.8L255.6 -32.8Z" fill="#fa938f" stroke="#fa938f"></path><path d="M863.6 574.8L900 547.5L849.3 493.4Z" fill="#9b99aa" stroke="#9b99aa"></path><path d="M863.6 574.8L900 567.8L900 547.5Z" fill="#ff9681" stroke="#ff9681"></path><path d="M900 600L900 567.8L863.6 574.8Z" fill="#ac99b5" stroke="#ac99b5"></path><path d="M900 94.3L886.3 14.2L844.6 108.2Z" fill="#e992a5" stroke="#e992a5"></path><path d="M810.6 21.3L900 0L767.6 0Z" fill="#b798b7" stroke="#b798b7"></path><path d="M722.3 610.8L900 600L776.3 600Z" fill="#ff9681" stroke="#ff9681"></path><path d="M776.3 600L900 600L863.6 574.8Z" fill="#f3929b" stroke="#f3929b"></path><path d="M913.6 600L900 600L722.3 610.8Z" fill="#a299b0" stroke="#a299b0"></path><path d="M913.6 600L940.6 538.7L900 567.8Z" fill="#d195b3" stroke="#d195b3"></path><path d="M900 567.8L940.6 538.7L900 547.5Z" fill="#e992a5" stroke="#e992a5"></path><path d="M900 547.5L940.6 538.7L900 455.7Z" fill="#fa938f" stroke="#fa938f"></path><path d="M900 455.7L940.6 538.7L900 428.4Z" fill="#e992a5" stroke="#e992a5"></path><path d="M900 428.4L940.6 538.7L900 370.1Z" fill="#b798b7" stroke="#b798b7"></path><path d="M900 370.1L940.6 538.7L900 325.2Z" fill="#fa938f" stroke="#fa938f"></path><path d="M900 325.2L940.6 538.7L900 321.9Z" fill="#c497b6" stroke="#c497b6"></path><path d="M900 321.9L940.6 538.7L900 286.8Z" fill="#d195b3" stroke="#d195b3"></path><path d="M900 286.8L940.6 538.7L900 221.5Z" fill="#ac99b5" stroke="#ac99b5"></path><path d="M900 221.5L940.6 538.7L900 165.6Z" fill="#ac99b5" stroke="#ac99b5"></path><path d="M900 165.6L940.6 538.7L900 120.2Z" fill="#ff9681" stroke="#ff9681"></path><path d="M900 120.2L940.6 538.7L900 94.3Z" fill="#f3929b" stroke="#f3929b"></path><path d="M900 94.3L900 0L886.3 14.2Z" fill="#b798b7" stroke="#b798b7"></path><path d="M886.3 14.2L900 0L810.6 21.3Z" fill="#fa938f" stroke="#fa938f"></path><path d="M940.6 538.7L900 0L900 94.3Z" fill="#e992a5" stroke="#e992a5"></path><path d="M460.7 639.8L913.6 600L722.3 610.8Z" fill="#f3929b" stroke="#f3929b"></path><path d="M900 600L913.6 600L900 567.8Z" fill="#e992a5" stroke="#e992a5"></path></g></svg>