<svg id="visual" viewBox="0 0 900 600" width="900" height="600" xmlns="http://www.w3.org/2000/svg" xmlns:xlink="http://www.w3.org/1999/xlink" version="1.1"><g stroke-width="1" stroke-linejoin="bevel"><path d="M300 300L300 0L0 0Z" fill="#f3f3f3" stroke="#f3f3f3"></path><path d="M0 0L0 300L300 300Z" fill="#efefef" stroke="#efefef"></path><path d="M300 300L600 0L300 0Z" fill="#e4e4e4" stroke="#e4e4e4"></path><path d="M300 300L600 300L600 0Z" fill="#ffffff" stroke="#ffffff"></path><path d="M0 300L0 600L300 300Z" fill="#ffffff" stroke="#ffffff"></path><path d="M300 300L300 600L600 300Z" fill="#dcdcdc" stroke="#dcdcdc"></path><path d="M0 600L300 600L300 300Z" fill="#f7f7f7" stroke="#f7f7f7"></path><path d="M300 600L600 600L600 300Z" fill="#e0e0e0" stroke="#e0e0e0"></path><path d="M600 300L900 0L600 0Z" fill="#f3f3f3" stroke="#f3f3f3"></path><path d="M900 300L900 0L600 300Z" fill="#ffffff" stroke="#ffffff"></path><path d="M600 600L900 300L600 300Z" fill="#f3f3f3" stroke="#f3f3f3"></path><path d="M600 600L900 600L900 300Z" fill="#e7e7e7" stroke="#e7e7e7"></path></g></svg>