<svg id="visual" viewBox="0 0 900 600" width="900" height="600" xmlns="http://www.w3.org/2000/svg" xmlns:xlink="http://www.w3.org/1999/xlink" version="1.1"><rect x="0" y="0" width="900" height="600" fill="#ffd4d4"></rect><g fill="#FFC19E"><circle r="63" cx="150" cy="36"></circle><circle r="32" cx="438" cy="559"></circle><circle r="43" cx="735" cy="332"></circle><circle r="46" cx="425" cy="225"></circle><circle r="52" cx="41" cy="463"></circle><circle r="56" cx="258" cy="594"></circle><circle r="61" cx="152" cy="233"></circle><circle r="39" cx="653" cy="441"></circle><circle r="42" cx="187" cy="446"></circle><circle r="55" cx="645" cy="10"></circle><circle r="57" cx="60" cy="596"></circle><circle r="43" cx="732" cy="173"></circle><circle r="45" cx="576" cy="288"></circle><circle r="47" cx="366" cy="370"></circle><circle r="52" cx="540" cy="108"></circle><circle r="37" cx="29" cy="200"></circle><circle r="52" cx="330" cy="118"></circle><circle r="45" cx="279" cy="243"></circle><circle r="45" cx="48" cy="330"></circle><circle r="33" cx="690" cy="575"></circle><circle r="49" cx="821" cy="24"></circle><circle r="32" cx="878" cy="533"></circle><circle r="56" cx="565" cy="535"></circle><circle r="52" cx="852" cy="406"></circle><circle r="52" cx="440" cy="27"></circle><circle r="57" cx="894" cy="127"></circle><circle r="39" cx="10" cy="75"></circle><circle r="47" cx="876" cy="270"></circle><circle r="42" cx="509" cy="411"></circle></g></svg>